<?xml version="1.0" encoding="utf-8"?>
<!-- Generated by IcoMoon.io -->
<!DOCTYPE svg PUBLIC "-//W3C//DTD SVG 1.1//EN" "http://www.w3.org/Graphics/SVG/1.1/DTD/svg11.dtd">
<svg version="1.1" xmlns="http://www.w3.org/2000/svg" xmlns:xlink="http://www.w3.org/1999/xlink" width="24" height="24" viewBox="0 0 24 24">
<g id="icomoon-ignore">
	<line stroke-width="1" x1="" y1="" x2="" y2="" stroke="#449FDB" opacity=""></line>
</g>
	<path d="M20.485 3.515c2.266 2.267 3.515 5.28 3.515 8.485s-1.248 6.219-3.515 8.485c-2.267 2.266-5.28 3.515-8.485 3.515s-6.219-1.248-8.485-3.515c-2.266-2.267-3.515-5.28-3.515-8.485s1.248-6.219 3.515-8.485c2.267-2.266 5.28-3.515 8.485-3.515s6.219 1.248 8.485 3.515zM19.425 19.425c1.478-1.478 2.461-3.319 2.866-5.322-0.316 0.465-0.618 0.637-0.805-0.403-0.193-1.697-1.751-0.613-2.731-1.215-1.031 0.695-3.349-1.351-2.955 0.957 0.608 1.041 3.281-1.393 1.949 0.81-0.85 1.538-3.109 4.944-2.815 6.709 0.037 2.572-2.628 0.536-3.546-0.317-0.618-1.709-0.211-4.696-1.826-5.533-1.753-0.076-3.258-0.235-3.937-2.195-0.409-1.402 0.435-3.49 1.938-3.812 2.2-1.382 2.985 1.618 5.048 1.674 0.64-0.67 2.386-0.883 2.531-1.635-1.354-0.239 1.717-1.138-0.13-1.65-1.019 0.12-1.675 1.056-1.134 1.851-1.974 0.46-2.038-2.857-3.935-1.811-0.048 1.654-3.099 0.536-1.056 0.201 0.702-0.307-1.145-1.196-0.147-1.034 0.49-0.027 2.141-0.605 1.694-0.994 0.919-0.57 1.691 1.366 2.591-0.044 0.649-1.084-0.272-1.285-1.086-0.735-0.459-0.514 0.81-1.624 1.93-2.103 0.373-0.16 0.729-0.247 1.002-0.222 0.564 0.651 1.607 0.764 1.661-0.078-1.396-0.669-2.936-1.022-4.53-1.022-2.288 0-4.464 0.727-6.265 2.072 0.484 0.222 0.759 0.498 0.292 0.851-0.362 1.079-1.832 2.528-3.122 2.323-0.67 1.155-1.111 2.428-1.3 3.762 1.081 0.358 1.33 1.065 1.098 1.302-0.551 0.48-0.889 1.161-1.063 1.906 0.352 2.152 1.363 4.136 2.936 5.709 1.983 1.983 4.62 3.075 7.425 3.075s5.441-1.092 7.425-3.075z" fill="#ffffff"></path>
</svg>
