<?xml version="1.0" encoding="utf-8"?>
<!-- Generated by IcoMoon.io -->
<!DOCTYPE svg PUBLIC "-//W3C//DTD SVG 1.1//EN" "http://www.w3.org/Graphics/SVG/1.1/DTD/svg11.dtd">
<svg version="1.1" xmlns="http://www.w3.org/2000/svg" xmlns:xlink="http://www.w3.org/1999/xlink" width="14" height="14" viewBox="0 0 14 14">
<g id="icomoon-ignore">
	<line stroke-width="1" x1="" y1="" x2="" y2="" stroke="#449FDB" opacity=""></line>
</g>
	<path d="M7 14c3.866 0 7-3.134 7-7s-3.134-7-7-7-7 3.134-7 7 3.134 7 7 7zM7 1.313c3.141 0 5.688 2.546 5.688 5.688s-2.546 5.688-5.688 5.688-5.688-2.546-5.688-5.688 2.546-5.688 5.688-5.688zM10.196 8.225l0.307 1.050-5.975 1.75-0.307-1.050zM3.5 4.375c0-0.483 0.392-0.875 0.875-0.875s0.875 0.392 0.875 0.875c0 0.483-0.392 0.875-0.875 0.875s-0.875-0.392-0.875-0.875zM8.75 4.375c0-0.483 0.392-0.875 0.875-0.875s0.875 0.392 0.875 0.875c0 0.483-0.392 0.875-0.875 0.875s-0.875-0.392-0.875-0.875z" fill="#000000"></path>
</svg>
