<?xml version="1.0" encoding="utf-8"?>
<!-- Generated by IcoMoon.io -->
<!DOCTYPE svg PUBLIC "-//W3C//DTD SVG 1.1//EN" "http://www.w3.org/Graphics/SVG/1.1/DTD/svg11.dtd">
<svg version="1.1" xmlns="http://www.w3.org/2000/svg" xmlns:xlink="http://www.w3.org/1999/xlink" width="14" height="14" viewBox="0 0 14 14">
<g id="icomoon-ignore">
	<line stroke-width="1" x1="" y1="" x2="" y2="" stroke="#449FDB" opacity=""></line>
</g>
	<path d="M13.035 1.020l-0.055-0.055c-1.287-1.287-3.393-1.287-4.68 0l-2.982 2.982c-1.287 1.287-1.287 3.393 0 4.68l0.055 0.055c0.107 0.107 0.221 0.204 0.338 0.293l1.092-1.092c-0.127-0.075-0.248-0.165-0.357-0.274l-0.055-0.055c-0.699-0.699-0.699-1.836 0-2.535l2.982-2.982c0.699-0.699 1.836-0.699 2.535 0l0.055 0.055c0.699 0.699 0.699 1.836 0 2.535l-1.349 1.349c0.234 0.578 0.345 1.195 0.335 1.81l2.086-2.086c1.287-1.287 1.287-3.393-0-4.68zM8.628 5.317c-0.107-0.107-0.221-0.204-0.338-0.293l-1.092 1.091c0.127 0.075 0.248 0.165 0.357 0.274l0.055 0.055c0.699 0.699 0.699 1.836 0 2.535l-2.982 2.982c-0.699 0.699-1.836 0.699-2.535 0l-0.055-0.055c-0.699-0.699-0.699-1.836 0-2.535l1.349-1.349c-0.234-0.578-0.345-1.195-0.335-1.81l-2.086 2.086c-1.287 1.287-1.287 3.393 0 4.68l0.055 0.055c1.287 1.287 3.393 1.287 4.68 0l2.982-2.982c1.287-1.287 1.287-3.393 0-4.68l-0.055-0.055z" fill="#000000"></path>
</svg>
