<svg xmlns="http://www.w3.org/2000/svg" width="134" height="14" viewBox="0 0 134 14"><defs><path class="path1" d="M13.035 1.02L12.98.965C11.693-.322 9.587-.322 8.3.965L5.318 3.947c-1.287 1.287-1.287 3.393 0 4.68l.055.055c.107.107.22.204.338.293l1.094-1.092c-.127-.075-.248-.165-.357-.274l-.055-.057c-.698-.7-.698-1.836 0-2.535l2.983-2.983c.7-.7 1.836-.7 2.535 0l.055.055c.7.7.7 1.836 0 2.535l-1.35 1.35c.235.577.346 1.194.336 1.81L13.035 5.7c1.287-1.287 1.287-3.393 0-4.68zM8.628 5.317c-.107-.107-.22-.204-.338-.293l-1.092 1.09c.127.076.248.166.357.275l.055.053c.7.7.7 1.836 0 2.535l-2.982 2.98c-.7.7-1.836.7-2.535 0l-.055-.054c-.7-.7-.7-1.836 0-2.535l1.35-1.35c-.235-.577-.346-1.194-.336-1.81L.966 8.3c-1.287 1.287-1.287 3.393 0 4.68l.055.055c1.29 1.287 3.395 1.287 4.68 0l2.984-2.982c1.287-1.285 1.287-3.39 0-4.68l-.055-.053zM7 14c3.866 0 7-3.134 7-7s-3.134-7-7-7-7 3.134-7 7 3.134 7 7 7zM7 1.313c3.14 0 5.688 2.546 5.688 5.688S10.142 12.69 7 12.69 1.312 10.142 1.312 7 3.858 1.314 7 1.314zm3.196 6.912l.307 1.05-5.975 1.75-.307-1.05zM3.5 4.375c0-.483.392-.875.875-.875s.875.392.875.875-.392.875-.875.875-.875-.392-.875-.875zm5.25 0c0-.483.392-.875.875-.875s.875.392.875.875-.392.875-.875.875-.875-.392-.875-.875zM11.375.875h-8.75L0 3.5v9.188c0 .242.196.438.438.438h13.125c.242 0 .438-.196.438-.438V3.5L11.378.875zM7 11.375l-4.375-3.5H5.25V5.25h3.5v2.625h2.625L7 11.375zm-4.888-8.75l.875-.875h8.025l.875.875H2.112z"/></defs></svg>