<svg display="none" version="1.1" xmlns="http://www.w3.org/2000/svg" xmlns:xlink="http://www.w3.org/1999/xlink"
     width="134" height="14" viewBox="0 0 134 14">
    <defs>
        <!--<g id="icon-spinner">
            <path class="path1"
                  d="M14 7c-0.017-0.914-0.216-1.825-0.582-2.659-0.365-0.834-0.895-1.589-1.545-2.214s-1.421-1.119-2.256-1.444c-0.834-0.327-1.731-0.483-2.617-0.464-0.886 0.018-1.768 0.21-2.575 0.565-0.807 0.354-1.539 0.868-2.143 1.498s-1.082 1.377-1.397 2.185c-0.316 0.807-0.467 1.675-0.448 2.533 0.018 0.858 0.205 1.711 0.549 2.491 0.343 0.781 0.84 1.488 1.451 2.072s1.333 1.046 2.114 1.35c0.781 0.305 1.619 0.45 2.449 0.431 0.83-0.018 1.654-0.199 2.407-0.532 0.754-0.332 1.437-0.813 2.001-1.403s1.010-1.288 1.302-2.043c0.178-0.457 0.299-0.935 0.363-1.419 0.017 0.001 0.034 0.002 0.051 0.002 0.483 0 0.875-0.392 0.875-0.875 0-0.025-0.001-0.049-0.003-0.073h0.003zM12.61 9.324c-0.321 0.727-0.786 1.386-1.356 1.93s-1.244 0.973-1.972 1.255c-0.728 0.283-1.508 0.416-2.282 0.398s-1.539-0.188-2.24-0.499c-0.701-0.31-1.336-0.759-1.859-1.309s-0.937-1.2-1.208-1.901c-0.272-0.701-0.4-1.452-0.381-2.198s0.182-1.482 0.482-2.156c0.299-0.674 0.731-1.285 1.261-1.788s1.156-0.901 1.83-1.16c0.675-0.261 1.396-0.383 2.114-0.364s1.425 0.177 2.072 0.465c0.647 0.288 1.234 0.704 1.718 1.214s0.864 1.111 1.113 1.759c0.249 0.648 0.366 1.341 0.348 2.030h0.003c-0.002 0.024-0.003 0.048-0.003 0.073 0 0.451 0.342 0.823 0.78 0.87-0.085 0.476-0.226 0.941-0.421 1.381z"></path>
        </g>-->
        <g id="icon-link">
            <path class="path1"
                  d="M13.035 1.020l-0.055-0.055c-1.287-1.287-3.393-1.287-4.68 0l-2.982 2.982c-1.287 1.287-1.287 3.393 0 4.68l0.055 0.055c0.107 0.107 0.221 0.204 0.338 0.293l1.092-1.092c-0.127-0.075-0.248-0.165-0.357-0.274l-0.055-0.055c-0.699-0.699-0.699-1.836 0-2.535l2.982-2.982c0.699-0.699 1.836-0.699 2.535 0l0.055 0.055c0.699 0.699 0.699 1.836 0 2.535l-1.349 1.349c0.234 0.578 0.345 1.195 0.335 1.81l2.086-2.086c1.287-1.287 1.287-3.393-0-4.68zM8.628 5.317c-0.107-0.107-0.221-0.204-0.338-0.293l-1.092 1.091c0.127 0.075 0.248 0.165 0.357 0.274l0.055 0.055c0.699 0.699 0.699 1.836 0 2.535l-2.982 2.982c-0.699 0.699-1.836 0.699-2.535 0l-0.055-0.055c-0.699-0.699-0.699-1.836 0-2.535l1.349-1.349c-0.234-0.578-0.345-1.195-0.335-1.81l-2.086 2.086c-1.287 1.287-1.287 3.393 0 4.68l0.055 0.055c1.287 1.287 3.393 1.287 4.68 0l2.982-2.982c1.287-1.287 1.287-3.393 0-4.68l-0.055-0.055z"></path>
        </g>
        <g id="icon-wondering">
            <path class="path1"
                  d="M7 14c3.866 0 7-3.134 7-7s-3.134-7-7-7-7 3.134-7 7 3.134 7 7 7zM7 1.313c3.141 0 5.688 2.546 5.688 5.688s-2.546 5.688-5.688 5.688-5.688-2.546-5.688-5.688 2.546-5.688 5.688-5.688zM10.196 8.225l0.307 1.050-5.975 1.75-0.307-1.050zM3.5 4.375c0-0.483 0.392-0.875 0.875-0.875s0.875 0.392 0.875 0.875c0 0.483-0.392 0.875-0.875 0.875s-0.875-0.392-0.875-0.875zM8.75 4.375c0-0.483 0.392-0.875 0.875-0.875s0.875 0.392 0.875 0.875c0 0.483-0.392 0.875-0.875 0.875s-0.875-0.392-0.875-0.875z"></path>
        </g>
        <!--<g id="icon-checkmark">
            <path class="path1" d="M11.813 1.75l-6.563 6.563-3.063-3.063-2.188 2.188 5.25 5.25 8.75-8.75z"></path>
        </g>-->
        <!--<g id="icon-newtab">
            <path class="path1"
                  d="M2.625 0.875v10.5h10.5v-10.5h-10.5zM12.25 10.5h-8.75v-8.75h8.75v8.75zM1.75 12.25v-8.75l-0.875-0.875v10.5h10.5l-0.875-0.875zM5.869 9.369l2.625-2.625 2.006 2.006v-5.25h-5.25l2.006 2.006-2.625 2.625z"></path>
        </g>-->
        <g id="icon-box-add">
            <path class="path1"
                  d="M11.375 0.875h-8.75l-2.625 2.625v9.188c0 0.242 0.196 0.438 0.438 0.438h13.125c0.242 0 0.438-0.196 0.438-0.438v-9.188l-2.625-2.625zM7 11.375l-4.375-3.5h2.625v-2.625h3.5v2.625h2.625l-4.375 3.5zM2.112 2.625l0.875-0.875h8.025l0.875 0.875h-9.775z"></path>
        </g>
    </defs>
</svg>