<?xml version="1.0" encoding="UTF-8" standalone="no"?>
<svg
   xmlns:dc="http://purl.org/dc/elements/1.1/"
   xmlns:cc="http://creativecommons.org/ns#"
   xmlns:rdf="http://www.w3.org/1999/02/22-rdf-syntax-ns#"
   xmlns:svg="http://www.w3.org/2000/svg"
   xmlns="http://www.w3.org/2000/svg"
   preserveAspectRatio="xMinYMid"
   width="20" height="20"
   viewBox="0 0 308.45334 305.95999"
   xml:space="preserve"
   id="svg2"
   version="1.1"><metadata
     id="metadata8"><rdf:RDF><cc:Work
         rdf:about=""><dc:format>image/svg+xml</dc:format><dc:type
           rdf:resource="http://purl.org/dc/dcmitype/StillImage" /></cc:Work></rdf:RDF></metadata><defs
     id="defs6"><clipPath
       id="clipPath20"
       clipPathUnits="userSpaceOnUse"><path
         id="path18"
         d="M 0,0 H 2313 V 2294.65 H 0 Z" /></clipPath></defs><g
     transform="matrix(1.3333333,0,0,-1.3333333,0,305.96)"
     id="g10"><g
       transform="scale(0.1)"
       id="g12"><g
         id="g14"><g
           clip-path="url(#clipPath20)"
           id="g16"><path
             id="path22"
             style="fill:#f7f7f7;fill-opacity:1;fill-rule:nonzero;stroke:none"
             d="m 1350.91,181.75 c -12.33,-1.828 -24.65,-3.352 -36.83,-4.309 -7.93,-0.39 -16.25,-1.191 -23.83,-1.191 l -2.83,-0.059 c 9.51,21.207 16.75,37.68 22.19,50.161 11.15,-12.481 25.32,-27.922 41.3,-44.602" /><path
             id="path24"
             style="fill:#f7f7f7;fill-opacity:1;fill-rule:nonzero;stroke:none"
             d="m 1335.96,1129.93 c -19.27,-15.65 -39.57,-30.2 -60.72,-42.99 l -70.52,-42.54 c -44.22,-5.39 -82.6,-16.33 -84.79,-16.99 -1.29,-0.29 -2.51,-0.89 -3.65,-1.57 -3.43,-1.99 -6.05,-5.3 -7.29,-9.22 L 1037.18,780 653.32,694.629 532.383,779.301 497.219,1064.22 c 68.687,12.62 160.508,27.18 270.789,39.56 -11.785,-14.12 -23.262,-28.96 -34.168,-44.57 l -65.656,-94.241 95.625,63.731 c 1.433,1 62.296,41.06 161.894,89.79 99.257,7.43 208.837,12.24 326.067,12.24 28.61,0 56.65,-0.35 84.19,-0.8 z m -597.503,-321 c 27.285,14.75 58.086,12.582 106.34,12.468 5.137,-0.089 10.484,-0.039 16.023,0.114 4.766,0 9.524,0.09 14.571,0.226 49.714,0.5 91.015,-4.187 90.273,73.801 -0.742,78 -35.41,141.091 -85.09,140.601 -49.668,-0.45 -97.754,-64.39 -94.773,-142.339 0.793,-20.301 3.801,-34.973 8.574,-45.5 -43.289,-10.903 -55.273,-37.692 -55.918,-39.371" /><path
             id="path26"
             style="fill:#f7f7f7;fill-opacity:1;fill-rule:nonzero;stroke:none"
             d="m 2001.28,1065.16 -34.57,-242.269 -121.93,-85.379 -383.36,43.566 -71.53,235.542 c -1.63,5.25 -5.69,9.27 -10.95,10.79 -2.36,0.7 -49.82,14.27 -100.12,18.63 l 9.2,0.6 c 7.93,0.59 140.14,16.78 298.04,71.2 174.83,-13.41 317.64,-34.86 415.22,-52.68 z M 1756.34,840.91 c -0.5,1.899 -11.02,33.231 -57.17,27.738 5.3,11.59 7.69,27.243 6,48.731 -6.09,77.84 -51.41,139.711 -101.04,137.971 -49.68,-1.73 -81.46,-66.272 -78.7,-144.37 2.73,-77.941 44.38,-77.39 94.05,-75.609 66.72,1.25 103.35,21.738 136.86,5.539" /><path
             id="path28"
             style="fill:#ffffff;fill-opacity:1;fill-rule:nonzero;stroke:none"
             d="m 1625.18,981.059 c 0.24,-14.02 -10.89,-25.547 -24.91,-25.848 -14.01,-0.25 -25.61,10.949 -25.81,24.918 -0.29,14.012 10.86,25.591 24.87,25.841 14.07,0.31 25.65,-10.892 25.85,-24.911" /><path
             id="path30"
             style="fill:#ffffff;fill-opacity:1;fill-rule:nonzero;stroke:none"
             d="m 913.621,962.398 c 0.356,-13.968 -10.699,-25.66 -24.668,-26.007 -14.07,-0.403 -25.75,10.648 -26.141,24.711 -0.351,13.968 10.684,25.707 24.754,26.007 13.957,0.391 25.664,-10.648 26.055,-24.711" /><path
             id="path32"
             style="fill:#f7f7f7;fill-opacity:1;fill-rule:nonzero;stroke:none"
             d="m 2168.61,958.578 c -5.98,4.953 -26,16.391 -45.51,26.942 l -32.13,-225.192 c -0.66,-4.297 -3.09,-8.308 -6.74,-10.879 l -45.97,-32.16 c -1.09,-5.437 -1.94,-9.98 -2.76,-14.23 45.16,-11.118 89.04,21.461 113.67,44.953 11.38,44.386 21.32,97.047 24.74,134.75 5.24,58.437 0.6,70.968 -5.3,75.816" /><path
             id="path34"
             style="fill:#f7f7f7;fill-opacity:1;fill-rule:nonzero;stroke:none"
             d="m 1458.63,103.02 c -29.83,10.628 -57.17,27.91 -80.96,51.449 -1.99,2.011 -3.87,3.961 -5.86,5.941 -18.42,-3.769 -37.23,-6.488 -56.4,-8.109 -8.07,-0.352 -15.79,-1.051 -24.22,-1.051 l -12.47,-0.102 -4.81,0.102 c -28.5,-42.352 -76.43,-65.6094 -113.99,-77.9883 111.56,-19.1406 234.31,10.1367 298.71,29.7583" /><path
             id="path36"
             style="fill:#f7f7f7;fill-opacity:1;fill-rule:nonzero;stroke:none"
             d="m 476.555,654.551 c -0.996,3.398 -2.051,6.758 -3.02,10.16 l -59.719,41.801 c -3.75,2.66 -6.132,6.679 -6.726,11.226 L 377.969,954.23 c -21.551,-11.5 -46.457,-25.71 -53.086,-31.261 -5.762,-4.75 -10.156,-16.879 -3.926,-73.231 4.727,-42.347 19.609,-107.437 34.813,-156.207 30.214,-23.121 74.757,-47.5 120.785,-38.98" /><path
             id="path38"
             style="fill:#ffffff;fill-opacity:1;fill-rule:nonzero;stroke:none"
             d="m 631.035,560.82 c -1.183,-0.199 -2.363,-0.351 -3.535,-0.351 h 0.027 c 1.125,0 2.317,0.152 3.508,0.351" /><path
             id="path40"
             style="fill:#ffffff;fill-opacity:1;fill-rule:nonzero;stroke:none"
             d="m 523.215,629.949 c 0.43,-1.281 0.887,-2.508 1.308,-3.781 -0.41,1.242 -0.863,2.48 -1.242,3.73 l -0.066,0.051" /><path
             id="path42"
             style="fill:#f7f7f7;fill-opacity:1;fill-rule:nonzero;stroke:none"
             d="m 1369.35,665.352 c -6.34,0.699 -11.7,5.148 -13.57,11.347 l -73.7,242.852 c -12.37,1.629 -23.33,2.527 -32.59,2.527 -9.3,0 -20.19,-0.898 -32.54,-2.527 L 1145.3,683.68 c -1.69,-5.5 -6.24,-9.75 -11.9,-10.989 l -34.25,-7.621 c -2.9,-12.101 -12.77,-29.859 -44.53,-39.59 -51.26,-15.64 -375.741,-112.359 -412.745,-107.089 -21.613,3.019 -62.715,25.718 -93.113,44.058 -12.168,28.641 -18.899,48.121 -20.442,52.742 v 0.098 l -0.09,-0.098 c 4.297,-12.582 46.641,-134.453 132.668,-253.679 92.227,27.187 171.895,52.527 197.364,60.578 51.883,80 125.793,159.371 178.278,162.09 9.11,0.449 18.48,0.738 27.78,0.738 25.72,0 50.27,-1.84 73.05,-4.539 -19.35,17.57 -23.33,38.109 -26.14,47.23 0,0 67.04,-52.429 152.32,-41.39 85.4,10.929 138.37,60.101 138.37,60.101 l 1.69,15.121 -34.26,3.911" /><path
             id="path44"
             style="fill:#ffffff;fill-opacity:1;fill-rule:nonzero;stroke:none"
             d="m 600.027,576.102 18.235,-12.723 -18.235,12.781 -54.675,38.281 v -0.043 l 54.675,-38.296" /><path
             id="path46"
             style="fill:#f7f7f7;fill-opacity:1;fill-rule:nonzero;stroke:none"
             d="m 1438.67,634.602 c -17.68,4.578 -28.82,11.867 -35.87,19.5 l -0.88,-7.782 c 0,0 -0.3,-35.832 -37.44,-63.609 71.52,21.66 101.1,29 121.34,29 22.29,0 33.32,-9.293 42.99,-17.481 1.83,-1.531 3.66,-3.121 5.85,-4.839 55.01,-43.282 121.13,-95.84 140.44,-111.289 22.39,-2.582 93.45,-10.704 138.17,-14.782 25.76,-2.41 49.08,-4.34 71.92,-4.34 7.32,0 14.25,0.25 20.79,0.7 23.59,45.16 45.3,95.121 64.61,150.218 -26.43,-18.57 -86.7,-59.148 -114.93,-64.398 -36.73,-6.871 -365.2,75.68 -416.99,89.102" /><path
             id="path48"
             style="fill:#ffffff;fill-opacity:1;fill-rule:nonzero;stroke:none"
             d="m 1971.25,611.789 c 2.05,5.891 4.09,11.781 6.07,17.77 -2,-5.969 -4.02,-11.879 -6.07,-17.77" /><path
             id="path50"
             style="fill:#ffffff;fill-opacity:1;fill-rule:nonzero;stroke:none"
             d="m 1877.88,607.789 c -0.98,-0.07 -1.94,-0.051 -2.89,0.07 0.96,-0.121 1.91,-0.14 2.89,-0.07" /><path
             id="path52"
             style="fill:#ececec;fill-opacity:1;fill-rule:nonzero;stroke:none"
             d="m 2265.22,1483.93 c -0.63,7.78 -1.48,15.56 -2.42,23.23 -0.65,5.5 -1.52,11.2 -2.47,16.49 -20.74,17.44 -44.32,32.98 -68.86,47.05 -26.58,15.6 -54.42,29.47 -82.84,42.39 -28.17,13.32 -57.16,25.36 -86.26,37.1 -14.56,5.94 -29.22,11.64 -43.97,17.09 -14.67,5.74 -29.47,11.09 -44.34,16.49 31.16,-5.16 62.05,-12.29 92.72,-20.16 19.95,-5.11 39.76,-10.9 59.46,-17.09 -140.15,366.18 -475.08,604.64 -840.81,604.64 -365.774,0 -700.672,-238.46 -840.723,-604.64 19.656,6.19 39.531,11.98 59.387,17.09 30.64,7.87 61.551,15 92.761,20.16 -14.96,-5.4 -29.726,-10.75 -44.484,-16.49 -14.656,-5.45 -29.312,-11.15 -43.875,-17.09 -29.121,-11.74 -58.058,-23.78 -86.316,-37.1 -28.325,-12.92 -56.157,-26.79 -82.766,-42.39 -24.551,-14.07 -48.086,-29.61 -68.879,-47.05 -0.847,-5.29 -1.746,-10.99 -2.437,-16.49 -0.918,-7.67 -1.77,-15.45 -2.461,-23.23 -1.352,-15.6 -1.887,-31.25 -1.992,-46.95 -0.344,-31.4 1.785,-62.79 5.742,-93.8 4.312,-31.15 10.015,-62.1 18.445,-92.02 4.141,-14.95 8.887,-29.7 14.356,-44.01 2.761,-7.14 5.742,-14.22 8.859,-21.01 1.531,-3.41 3.113,-6.78 4.765,-10 l 2.008,-3.81 c 2.285,-1.14 4.719,-2.37 6.985,-3.47 l 13.918,-6.64 c 7.769,-3.56 18.535,-8.66 27.429,-12.63 l 1.399,1.34 -25.852,98.46 c 5.489,1.48 54.571,14.17 139.16,30.3 -6.789,1.29 -13.671,2.72 -20.449,4.36 -19.258,4.81 -38.269,10.65 -56.711,18.08 -9.121,3.87 -18.125,8.07 -26.687,12.92 -8.574,4.96 -16.992,10.5 -23.535,17.93 92.918,-30.35 284.98,-16.64 455.722,1.04 156.106,16.09 312.671,26.5 469.991,26.84 157.29,-0.34 313.9,-10.75 469.93,-26.84 170.81,-17.68 362.86,-31.39 455.77,-1.04 -6.48,-7.43 -14.96,-12.97 -23.45,-17.93 -8.63,-4.85 -17.65,-9.05 -26.77,-12.92 -18.42,-7.43 -37.38,-13.27 -56.65,-18.08 -2.87,-0.69 -5.75,-1.29 -8.61,-1.93 92.8,-17.19 146.79,-31.2 152.52,-32.73 l -24.71,-93.8 c 5.02,2.18 10.07,4.35 14.91,6.63 l 13.96,6.64 c 2.29,1.1 4.67,2.33 7.04,3.47 l 1.88,3.81 c 1.69,3.22 3.33,6.59 4.84,10 3.14,6.79 6.12,13.87 8.83,21.01 5.44,14.31 10.21,29.06 14.37,44.01 8.46,29.92 14.16,60.87 18.41,92.02 4.03,31.01 6.17,62.4 5.86,93.8 -0.15,15.7 -0.69,31.35 -2.1,46.95" /><path
             id="path54"
             style="fill:#929393;fill-opacity:1;fill-rule:nonzero;stroke:none"
             d="m 1630.24,1666.08 c 1.42,-41.89 0.39,-117.9 -19.13,-189.03 -0.79,-2.72 -0.69,-5.55 0,-8.17 -24.85,2.62 -49.71,4.85 -74.57,6.88 27.87,58.45 33.97,120.7 35.32,142.63 21.43,15.2 42.73,33.48 58.38,47.69" /><path
             id="path56"
             style="fill:#929393;fill-opacity:1;fill-rule:nonzero;stroke:none"
             d="m 919.062,1618.39 c 1.297,-21.93 7.391,-84.03 35.262,-142.48 -24.859,-1.97 -49.715,-4.26 -74.519,-6.88 0.675,2.52 0.722,5.3 0,8.02 -19.485,71.02 -20.52,147.04 -19.18,189.03 15.703,-14.21 36.953,-32.49 58.437,-47.69" /><path
             id="path58"
             style="fill:#bbbbb9;fill-opacity:1;fill-rule:nonzero;stroke:none"
             d="m 2046.61,1362.88 v 0" /><path
             id="path60"
             style="fill:#bbbbb9;fill-opacity:1;fill-rule:nonzero;stroke:none"
             d="m 1935.51,1410.84 -0.51,-2.08 c 2.73,-0.79 5.4,-1.59 8.13,-2.48 22.98,-7.53 45.99,-15.39 67.96,-25.54 -36.67,23.83 -59.94,92.59 -72.9,145.14 3.56,-68.8 -2.34,-112.44 -2.68,-115.04" /><path
             id="path62"
             style="fill:#bbbbb9;fill-opacity:1;fill-rule:nonzero;stroke:none"
             d="m 2042.66,1364.82 c 1.86,-0.92 3.28,-1.62 3.95,-1.94 -0.59,0.28 -1.87,0.91 -3.95,1.94" /><path
             id="path64"
             style="fill:#bbbbb9;fill-opacity:1;fill-rule:nonzero;stroke:none"
             d="m 2034.06,1369.02 c 3.72,-1.82 6.56,-3.2 8.6,-4.2 -2.37,1.16 -5.43,2.65 -8.6,4.2" /><path
             id="path66"
             style="fill:#bbbbb9;fill-opacity:1;fill-rule:nonzero;stroke:none"
             d="m 2034.06,1369.02 -0.53,0.27 v -0.01 l 0.53,-0.26" /><path
             id="path68"
             style="fill:#bbbbb9;fill-opacity:1;fill-rule:nonzero;stroke:none"
             d="m 830.027,1679.3 -237.285,-67.49 c -14.207,-92.29 -9.883,-162.77 -7.586,-187.24 l 1.199,0.73 c 0,0 7.739,100.53 23.489,139.11 8.117,19.81 57.793,32.45 95.664,41.5 37.949,9.02 98.457,27.09 110.215,-26.2 7.246,-32.92 17.226,-60.3 26.797,-80.48 -15.254,73.2 -14.278,144.75 -12.493,180.07" /><path
             id="path70"
             style="fill:#bbbbb9;fill-opacity:1;fill-rule:nonzero;stroke:none"
             d="m 1660.79,1679.3 c 1.94,-36.69 2.84,-112.51 -14.36,-188.64 10.79,20.68 22.77,51.19 31.11,89.05 11.73,53.29 72.24,35.22 110.18,26.2 37.94,-9.05 87.56,-21.69 95.68,-41.5 13.37,-32.66 20.92,-109.66 22.93,-132.56 2.25,29.44 4.75,95.61 -8.18,179.96 l -237.36,67.49" /><path
             id="path72"
             style="fill:#bbbbb9;fill-opacity:1;fill-rule:nonzero;stroke:none"
             d="m 917.18,1658.75 c 8.425,-6.73 17.246,-13.32 25.816,-19.11 4.152,-2.88 6.692,-7.57 6.777,-12.63 0.051,-0.8 1.829,-78.98 36.387,-145.55 0.5,-1 0.852,-2.09 1.195,-3.12 85.925,5.84 172.105,8.21 258.075,8.27 86.03,-0.06 172.15,-2.58 258.03,-8.47 0.35,1.13 0.67,2.23 1.28,3.32 34.51,66.57 36.35,144.75 36.35,145.55 0.09,5.06 2.68,9.75 6.83,12.63 8.29,5.59 16.66,11.95 24.86,18.46 l 1.08,3.06 c 17.97,174.87 -14.99,336.02 -35.93,415.65 -1.11,-54.44 -14.01,-520.97 -129.77,-520.97 -122.86,0 -147.48,0 -147.48,0 h -24.56 c 0,0 -24.57,0 -147.48,0 -122.925,0 -132.82,525.99 -132.82,525.99 l -6.328,-18.68 c -20.969,-83.88 -49.765,-238.04 -32.312,-404.4" /><path
             id="path74"
             style="fill:#bbbbb9;fill-opacity:1;fill-rule:nonzero;stroke:none"
             d="m 1617.95,1787.07 -1.91,7.09 c 0.24,-3.58 0.47,-7.11 0.68,-10.59 l 1.23,3.5" /><path
             id="path76"
             style="fill:#bbbbb9;fill-opacity:1;fill-rule:nonzero;stroke:none"
             d="m 444.148,1362.88 v 0" /><path
             id="path78"
             style="fill:#bbbbb9;fill-opacity:1;fill-rule:nonzero;stroke:none"
             d="m 456.711,1369.02 1.297,0.64 -1.297,-0.64" /><path
             id="path80"
             style="fill:#bbbbb9;fill-opacity:1;fill-rule:nonzero;stroke:none"
             d="m 456.711,1369.02 c -3.188,-1.55 -6.231,-3.04 -8.598,-4.2 2.032,1 4.856,2.38 8.598,4.2" /><path
             id="path82"
             style="fill:#bbbbb9;fill-opacity:1;fill-rule:nonzero;stroke:none"
             d="m 448.113,1364.82 c -2.105,-1.03 -3.355,-1.66 -3.965,-1.94 0.688,0.32 2.082,1.02 3.965,1.94" /><path
             id="path84"
             style="fill:#bbbbb9;fill-opacity:1;fill-rule:nonzero;stroke:none"
             d="m 555.867,1408.8 -0.457,2.04 c -0.383,2.6 -6.301,46.28 -2.734,115.16 -12.981,-52.6 -36.309,-121.47 -73.035,-145.29 21.968,10.18 45.078,18.08 68.093,25.62 2.688,0.84 5.45,1.64 8.133,2.47" /><path
             id="path86"
             style="fill:#b6b1af;fill-opacity:1;fill-rule:nonzero;stroke:none"
             d="m 2099.1,663.82 c -21.96,0 -50.81,3.809 -70.39,8.371 3.2,12.7 4.83,20.797 6.79,30.868 v 0 c 0.1,-0.02 0.2,-0.047 0.3,-0.071 6.17,-1.488 12.31,-2.168 18.39,-2.168 0.01,0 0.01,0 0.01,0 v 0 c 0.01,0 0.02,0 0.03,0 37.69,0.008 72.65,26.149 93.95,46.258 0.04,0.031 0.07,0.063 0.1,0.094 0.04,0.027 0.08,0.066 0.11,0.109 0.03,0.02 0.06,0.047 0.09,0.078 0.02,0.02 0.04,0.039 0.06,0.059 0.03,0.023 0.05,0.043 0.07,0.062 0.08,0.079 0.16,0.149 0.23,0.219 0.02,0.02 0.04,0.039 0.06,0.051 0.01,0.02 0.03,0.031 0.04,0.051 0.02,0.019 0.04,0.039 0.07,0.058 0.05,0.051 0.11,0.102 0.16,0.153 v 0 c -10.23,-39.903 -21.61,-73.121 -30.43,-82.703 -5.28,-1.028 -12.05,-1.489 -19.64,-1.489" /><path
             id="path88"
             style="fill:#b1acab;fill-opacity:1;fill-rule:nonzero;stroke:none"
             d="m 2054.2,700.82 c 0,0 0,0 -0.01,0 0.01,0 0.01,0 0.01,0 v 0 m 0.03,0 c 37.68,0.008 72.65,26.149 93.95,46.258 -21.3,-20.109 -56.26,-46.25 -93.95,-46.258 m -18.43,2.168 c -0.1,0.024 -0.2,0.051 -0.3,0.071 0.1,-0.02 0.2,-0.047 0.3,-0.071 m 112.48,44.184 c 0.04,0.027 0.08,0.066 0.11,0.109 -0.03,-0.043 -0.07,-0.082 -0.11,-0.109 m 0.2,0.187 c 0.02,0.02 0.04,0.039 0.06,0.059 -0.02,-0.02 -0.04,-0.039 -0.06,-0.059 m 0.13,0.121 c 0.08,0.079 0.16,0.149 0.23,0.219 -0.07,-0.07 -0.15,-0.14 -0.23,-0.219 m 0.29,0.27 c 0.01,0.02 0.03,0.031 0.04,0.051 -0.01,-0.02 -0.03,-0.031 -0.04,-0.051 m 0.11,0.109 c 0.05,0.051 0.11,0.102 0.16,0.153 -0.05,-0.051 -0.11,-0.102 -0.16,-0.153" /><path
             id="path90"
             style="fill:#b6b1af;fill-opacity:1;fill-rule:nonzero;stroke:none"
             d="m 1246.97,36.3906 c -52,0 -104.36,7.5703 -155.81,21.6485 5.31,1 9.16,1.6406 13.82,2.1914 2.27,0.2695 25.41,3.3007 54.94,13.0312 25.57,-4.3906 51.7,-6.2305 77.61,-6.2305 h 0.01 v 0 c 0.01,0 0.02,0 0.03,0 86.02,0 169.27,20.3399 219.15,35.4098 0.01,0.008 0.01,0.008 0.02,0.008 0.07,0.02 0.15,0.039 0.22,0.071 0.05,0.011 0.11,0.031 0.16,0.039 0.11,0.043 0.22,0.07 0.32,0.101 0.04,0.012 0.08,0.02 0.12,0.039 0.02,0.012 0.04,0.012 0.07,0.02 0.18,0.051 0.35,0.109 0.53,0.16 0.05,0.012 0.1,0.031 0.15,0.043 0.01,0.008 0.03,0.008 0.04,0.019 0.1,0.028 0.19,0.059 0.28,0.079 v 0 c 18.07,-6.4184 37.06,-10.4497 56.71,-11.8911 -87.58,-35.5703 -170.07,-49.2773 -233.61,-53.5898 -11.56,-0.7696 -23.15,-1.1485 -34.76,-1.1485" /><path
             id="path92"
             style="fill:#b1acab;fill-opacity:1;fill-rule:nonzero;stroke:none"
             d="m 1237.54,67.0312 h -0.01 0.01 v 0 m 0.03,0 c 86.01,0 169.27,20.3399 219.15,35.4098 -49.88,-15.0699 -133.13,-35.4098 -219.15,-35.4098 m 219.17,35.4178 c 0.07,0.02 0.15,0.039 0.22,0.071 -0.07,-0.032 -0.15,-0.051 -0.22,-0.071 m 0.38,0.11 c 0.11,0.043 0.22,0.07 0.32,0.101 -0.1,-0.031 -0.21,-0.058 -0.32,-0.101 m 0.44,0.14 c 0.02,0.012 0.04,0.012 0.07,0.02 -0.03,-0.008 -0.05,-0.008 -0.07,-0.02 m 0.6,0.18 c 0.05,0.012 0.1,0.031 0.15,0.043 -0.05,-0.012 -0.1,-0.031 -0.15,-0.043 m 0.19,0.062 c 0.1,0.028 0.19,0.059 0.28,0.079 -0.09,-0.02 -0.18,-0.051 -0.28,-0.079" /><path
             id="path94"
             style="fill:#b6b1af;fill-opacity:1;fill-rule:nonzero;stroke:none"
             d="m 399.469,628.988 c -6.379,0 -12.078,0.352 -16.657,1.153 -7.39,7.48 -17.265,32.078 -27.042,63.39 v 0 c 0.054,-0.043 0.109,-0.082 0.16,-0.121 25.984,-19.859 62.504,-40.59 101.445,-40.601 0.008,0 0.02,0 0.027,0 v 0 c 0.004,0 0.004,0 0.008,0 6.274,0 12.61,0.543 18.977,1.711 0.054,0.011 0.109,0.019 0.168,0.031 1.375,-4.711 2.715,-9.442 4.16,-14.11 -19.735,-5.82 -55.891,-11.453 -81.246,-11.453" /><path
             id="path96"
             style="fill:#b1acab;fill-opacity:1;fill-rule:nonzero;stroke:none"
             d="m 457.402,652.809 c -0.007,0 -0.019,0 -0.027,0 0.008,0 0.02,0 0.027,0 v 0 m 0.008,0 c 6.27,0 12.613,0.543 18.977,1.711 -6.367,-1.168 -12.703,-1.711 -18.977,-1.711 M 355.93,693.41 c -0.051,0.039 -0.106,0.078 -0.16,0.121 0.054,-0.043 0.109,-0.082 0.16,-0.121" /><path
             id="path98"
             style="fill:#b6b1af;fill-opacity:1;fill-rule:nonzero;stroke:none"
             d="m 645.402,518.18 h -0.004 c -1.367,0 -2.546,0.07 -3.523,0.211 v 0 c -21.613,3.019 -62.715,25.718 -93.113,44.058 -12.168,28.641 -18.899,48.121 -20.442,52.742 v 0.098 c -1.316,3.551 -2.55,7.242 -3.797,10.879 v 0 c -0.41,1.242 -0.863,2.48 -1.242,3.73 l 22.071,-15.41 v -0.09 l 54.675,-38.296 18.235,-12.723 c 2.761,-1.93 5.984,-2.91 9.218,-2.91 h 0.047 c 0.328,0 0.657,0.011 0.993,0.031 0.835,0.059 1.675,0.18 2.515,0.32 v 0 l 468.115,104.25 c -2.9,-12.101 -12.77,-29.859 -44.53,-39.59 v 0 c -0.06,-0.019 -0.11,-0.039 -0.17,-0.058 -0.03,-0.012 -0.06,-0.024 -0.09,-0.024 -0.02,-0.007 -0.04,-0.019 -0.06,-0.019 -0.09,-0.027 -0.19,-0.059 -0.29,-0.09 -0.09,-0.027 -0.19,-0.059 -0.28,-0.09 -0.02,0 -0.04,-0.008 -0.06,-0.019 -52.75,-16.059 -358.143,-107 -408.268,-107" /><path
             id="path100"
             style="fill:#b6b1af;fill-opacity:1;fill-rule:nonzero;stroke:none"
             d="m 628.52,560.5 c 0.824,0.059 1.668,0.18 2.515,0.32 -0.84,-0.14 -1.68,-0.261 -2.515,-0.32" /><path
             id="path102"
             style="fill:#b6b1af;fill-opacity:1;fill-rule:nonzero;stroke:none"
             d="m 1849.92,545.102 c -56.36,-0.012 -357.81,75.679 -410.31,89.25 -0.16,0.039 -0.32,0.089 -0.48,0.128 -0.02,0 -0.04,0.008 -0.07,0.02 -0.02,0 -0.04,0.012 -0.07,0.012 -0.01,0.008 -0.02,0.008 -0.03,0.008 -0.06,0.019 -0.12,0.031 -0.18,0.05 -0.03,0.008 -0.07,0.02 -0.11,0.032 -17.68,4.578 -28.82,11.867 -35.87,19.5 l 0.81,7.339 471.38,-53.582 v 0 c 0.59,-0.07 1.18,-0.109 1.78,-0.109 v 0 0 0 c 0.01,0 0.01,0 0.02,0 0.31,0 0.61,0.012 0.92,0.031 0.06,0 0.12,0.008 0.17,0.008 2.9,0.211 5.72,1.223 8.15,2.902 l 47.33,33.168 43.74,30.653 16.25,11.398 c -2.68,-11.301 -5.6,-22.5 -8.61,-33.531 -2.44,-7.707 -4.9,-15.289 -7.42,-22.82 v 0 c -2,-5.969 -4.02,-11.879 -6.07,-17.77 v 0 l -0.66,-1.891 v 0 c -26.43,-18.57 -86.7,-59.148 -114.93,-64.398 -1.46,-0.27 -3.39,-0.398 -5.74,-0.398 v 0 m 26.85,62.648 c -0.01,0 -0.02,0 -0.02,0 0,0 0.01,0 0.02,0 v 0 m -1.41,0.07 c -0.12,0.008 -0.25,0.02 -0.37,0.039 0.12,-0.019 0.25,-0.031 0.37,-0.039" /><path
             id="path104"
             style="fill:#b1acab;fill-opacity:1;fill-rule:nonzero;stroke:none"
             d="m 1849.92,545.102 c -56.39,0 -357.81,75.679 -410.31,89.25 52.5,-13.571 353.95,-89.262 410.31,-89.25 v 0 m 0,0 c 2.35,0 4.28,0.128 5.74,0.398 28.23,5.25 88.5,45.828 114.93,64.398 v 0 c -26.43,-18.57 -86.7,-59.148 -114.93,-64.398 -1.46,-0.27 -3.39,-0.398 -5.74,-0.398 m -410.79,89.378 c -0.02,0 -0.04,0.008 -0.07,0.02 0.03,-0.012 0.05,-0.02 0.07,-0.02 m -0.14,0.032 c -0.01,0.008 -0.02,0.008 -0.03,0.008 0.01,0 0.02,0 0.03,-0.008 m -0.21,0.058 c -0.03,0.008 -0.07,0.02 -0.11,0.032 -17.68,4.578 -28.82,11.867 -35.87,19.5 v 0 c 7.05,-7.633 18.19,-14.922 35.87,-19.5 0.04,-0.012 0.08,-0.024 0.11,-0.032" /><path
             id="path106"
             style="fill:#b6b1af;fill-opacity:1;fill-rule:nonzero;stroke:none"
             d="m 1876.77,607.75 v 0 0 0 0 m 0,0 c -0.6,0 -1.19,0.039 -1.78,0.109 v 0 c 0.12,-0.019 0.25,-0.031 0.37,-0.039 0.46,-0.05 0.92,-0.07 1.39,-0.07 0,0 0.01,0 0.02,0 v 0 m 0.02,0 c 0.31,0 0.61,0.012 0.92,0.031 -0.31,-0.019 -0.61,-0.031 -0.92,-0.031" /><path
             id="path108"
             style="fill:#6d696d;fill-opacity:1;fill-rule:nonzero;stroke:none"
             d="m 1485.97,1287.47 c -3.7,-4.81 -7.78,-10.06 -12.13,-15.55 -22.39,-28.28 -53.4,-64.38 -90.13,-99.79 -42.79,1.34 -86.72,2.08 -131.94,2.08 -74.74,0 -146.4,-1.98 -214.45,-5.25 96.19,39.86 211.67,78.84 336.77,102.22 36.51,6.93 73.89,12.48 111.88,16.29" /><path
             id="path110"
             style="fill:#6d696d;fill-opacity:1;fill-rule:nonzero;stroke:none"
             d="m 923.32,1244.43 c -34.367,-24.12 -73.086,-54.87 -110.683,-92.21 -96.219,-9.66 -180.215,-21.29 -249.446,-32.48 106.465,48.92 228,93.99 360.129,124.69" /><path
             id="path112"
             style="fill:#6d696d;fill-opacity:1;fill-rule:nonzero;stroke:none"
             d="m 2099.24,1045.74 -39.19,-273.849 -187.54,-131.411 -489.1,55.622 -73.6,242.476 c -1.74,5.883 -6.73,10.203 -12.82,11.231 -18.12,2.941 -34.12,4.363 -47.5,4.363 -13.41,0 -29.42,-1.422 -47.63,-4.363 -6.01,-1.028 -10.96,-5.348 -12.8,-11.231 L 1117.28,702.012 630.938,593.789 438.191,728.801 400.156,1036.14 c 8.321,4.64 16.746,9.3 25.196,13.96 11.953,2.57 25.371,5.3 40.222,8.12 l 35.805,-290.009 c 0.484,-4.5 3.023,-8.52 6.746,-11.121 l 132.629,-92.918 c 2.664,-1.844 5.934,-2.883 9.141,-2.883 1.191,0 2.332,0.152 3.582,0.402 l 399.853,88.95 c 1.39,0.339 2.71,0.828 4,1.468 3.68,2 6.63,5.371 7.84,9.571 l 72.06,237.058 c 19.3,4.952 68.79,16.552 112.26,16.552 43.39,0 92.87,-11.6 112.23,-16.552 l 72.01,-237.058 c 1.83,-6.141 7.22,-10.602 13.56,-11.328 l 399.92,-45.434 c 3.85,-0.449 7.8,0.594 10.98,2.832 l 132.67,92.75 c 3.58,2.578 6.04,6.602 6.64,10.949 l 35.42,247.811 c 26.59,-5.09 48.82,-9.75 66.32,-13.52" /><path
             id="path114"
             style="fill:#6d696d;fill-opacity:1;fill-rule:nonzero;stroke:none"
             d="m 2148.61,1217.49 -34.43,-130.6 c -70.41,15.55 -225.03,46.01 -435.51,66.52 68.74,29.32 138.77,66.06 202.76,112.07 125.24,-17.68 217.2,-36.69 267.18,-47.99" /><path
             id="path116"
             style="fill:#6d696d;fill-opacity:1;fill-rule:nonzero;stroke:none"
             d="m 355.027,1217.49 9.575,-36.15 c 26.785,21.34 51.304,39.02 72,53.13 -33.719,-6.48 -61.219,-12.37 -81.575,-16.98" /><path
             id="path118"
             style="fill:#606264;fill-opacity:1;fill-rule:nonzero;stroke:none"
             d="m 1819.42,1282.66 -0.34,0.15 c -23.08,1.72 -46.15,3.29 -69.23,4.78 23.08,-1.5 46.15,-3.07 69.23,-4.83 l 0.34,-0.1" /><path
             id="path120"
             style="fill:#606264;fill-opacity:1;fill-rule:nonzero;stroke:none"
             d="m 1650.35,1186.52 c 52.74,23.35 106.42,52.18 157.47,87.83 -51.06,-35.64 -104.74,-64.48 -157.47,-87.83" /><path
             id="path122"
             style="fill:#606264;fill-opacity:1;fill-rule:nonzero;stroke:none"
             d="m 1705.42,1290.34 c -52.71,2.97 -105.39,5.5 -158.14,7.68 -3.02,-4.51 -9.25,-13.57 -18.17,-25.76 -28.26,-38.22 -83.97,-107.91 -155.36,-167.71 53.72,17.03 266.82,88.51 374.77,183.12 -14.36,0.93 -28.72,1.84 -43.1,2.67" /><path
             id="path124"
             style="fill:#606264;fill-opacity:1;fill-rule:nonzero;stroke:none"
             d="m 1105.88,1241.95 c -3.83,-1.39 -7.68,-2.78 -11.47,-4.18 3.79,1.4 7.64,2.79 11.47,4.18" /><path
             id="path126"
             style="fill:#606264;fill-opacity:1;fill-rule:nonzero;stroke:none"
             d="m 1130.25,1250.56 c -4.38,-1.51 -8.75,-3.03 -13.06,-4.55 4.31,1.52 8.68,3.04 13.06,4.55" /><path
             id="path128"
             style="fill:#606264;fill-opacity:1;fill-rule:nonzero;stroke:none"
             d="m 1082.3,1233.25 c -3.31,-1.23 -6.58,-2.48 -9.85,-3.72 3.27,1.24 6.54,2.49 9.85,3.72" /><path
             id="path130"
             style="fill:#606264;fill-opacity:1;fill-rule:nonzero;stroke:none"
             d="m 1059.44,1224.5 c -2.67,-1.05 -5.31,-2.09 -7.97,-3.13 2.66,1.04 5.3,2.08 7.97,3.13" /><path
             id="path132"
             style="fill:#606264;fill-opacity:1;fill-rule:nonzero;stroke:none"
             d="m 1156.12,1259.29 c -5.18,-1.71 -10.36,-3.41 -15.49,-5.15 5.13,1.74 10.31,3.44 15.49,5.15" /><path
             id="path134"
             style="fill:#606264;fill-opacity:1;fill-rule:nonzero;stroke:none"
             d="m 1244.45,1285.78 c -18.72,-5.08 -37.16,-10.36 -55.18,-15.9 18.03,5.54 36.47,10.82 55.18,15.9" /><path
             id="path136"
             style="fill:#606264;fill-opacity:1;fill-rule:nonzero;stroke:none"
             d="m 1189.27,1269.88 c -8.26,-2.54 -16.46,-5.14 -24.59,-7.77 8.13,2.63 16.33,5.23 24.59,7.77" /><path
             id="path138"
             style="fill:#606264;fill-opacity:1;fill-rule:nonzero;stroke:none"
             d="m 1015.73,1206.84 -0.79,-0.33 0.79,0.33" /><path
             id="path140"
             style="fill:#606264;fill-opacity:1;fill-rule:nonzero;stroke:none"
             d="m 1037.24,1215.68 c -1.8,-0.72 -3.55,-1.45 -5.33,-2.17 1.78,0.72 3.53,1.45 5.33,2.17" /><path
             id="path142"
             style="fill:#606264;fill-opacity:1;fill-rule:nonzero;stroke:none"
             d="m 1319.19,1304.25 0.23,0.06 c -26.74,0.35 -53.49,0.64 -80.18,0.74 h -0.05 c -39.32,-0.1 -78.56,-0.6 -117.87,-1.29 l -72.5,-34.36 -1.08,-0.6 c -10.9,-5.3 -106.08,-53.33 -195.689,-139.01 7.844,4.13 16.152,8.41 24.707,12.75 49.012,32.93 179.712,110.9 382.962,162.3 19.83,-0.13 39.66,-0.25 59.47,-0.59" /><path
             id="path144"
             style="fill:#606264;fill-opacity:1;fill-rule:nonzero;stroke:none"
             d="m 873.672,1295.5 c -33.574,-1.55 -67.149,-3.27 -100.692,-5.16 -38.886,-2.18 -77.66,-4.8 -116.398,-7.72 -19.316,-1.48 -38.672,-3.13 -57.832,-5.15 -5.559,-0.54 -10.996,-1.15 -16.445,-1.84 -50.617,-30.26 -244.356,-151.88 -377.469,-311.06 2.293,2.758 4.656,5.489 7.012,8.219 246.422,210.231 516.597,292.071 661.824,322.711" /><path
             id="path146"
             style="fill:#606264;fill-opacity:1;fill-rule:nonzero;stroke:none"
             d="M 811.633,1259.86 C 545.43,1181.11 330.105,1051.65 204.836,964.57 c 125.309,87.08 340.594,216.54 606.797,295.29" /><path
             id="path148"
             style="fill:#606264;fill-opacity:1;fill-rule:nonzero;stroke:none"
             d="m 837.559,1267.32 c 44.265,12.37 89.882,23.27 136.679,32.29 l -0.312,-0.01 c -46.629,-9.06 -92.196,-19.89 -136.367,-32.28" /><path
             id="path150"
             style="fill:#606264;fill-opacity:1;fill-rule:nonzero;stroke:none"
             d="m 1967.29,382.602 -0.08,-0.114 -0.03,-0.039 0.11,0.153" /><path
             id="path152"
             style="fill:#606264;fill-opacity:1;fill-rule:nonzero;stroke:none"
             d="m 2024.81,448.629 c 1.38,0.621 2.73,1.269 4.11,1.891 -1.38,-0.641 -2.73,-1.25 -4.11,-1.891" /><path
             id="path154"
             style="fill:#606264;fill-opacity:1;fill-rule:nonzero;stroke:none"
             d="m 2034.03,452.93 2.51,1.172 -2.51,-1.172" /><path
             id="path156"
             style="fill:#606264;fill-opacity:1;fill-rule:nonzero;stroke:none"
             d="m 2008.68,440.898 c 1.85,0.911 3.73,1.793 5.65,2.711 -1.92,-0.918 -3.8,-1.8 -5.65,-2.711" /><path
             id="path158"
             style="fill:#606264;fill-opacity:1;fill-rule:nonzero;stroke:none"
             d="m 2001.46,437.359 c 1.94,0.961 3.95,1.93 5.97,2.93 -2.04,-1 -4.02,-1.969 -5.97,-2.93" /><path
             id="path160"
             style="fill:#606264;fill-opacity:1;fill-rule:nonzero;stroke:none"
             d="m 1302.9,310.59 1.06,-1.25 c 0.86,-0.641 1.76,-1.328 2.7,-2.031 -1.24,1.113 -2.52,2.171 -3.76,3.281" /><path
             id="path162"
             style="fill:#606264;fill-opacity:1;fill-rule:nonzero;stroke:none"
             d="m 2016.46,444.648 c 1.67,0.801 3.36,1.602 5.04,2.403 -1.69,-0.801 -3.36,-1.602 -5.04,-2.403" /><path
             id="path164"
             style="fill:#606264;fill-opacity:1;fill-rule:nonzero;stroke:none"
             d="m 1988.58,430.879 v 0 l 1.29,0.66 -1.29,-0.66" /><path
             id="path166"
             style="fill:#606264;fill-opacity:1;fill-rule:nonzero;stroke:none"
             d="m 1989.87,431.539 c 1.28,0.66 2.57,1.313 3.91,1.992 -1.35,-0.679 -2.63,-1.332 -3.91,-1.992" /><path
             id="path168"
             style="fill:#606264;fill-opacity:1;fill-rule:nonzero;stroke:none"
             d="m 1993.78,433.531 c 2.29,1.149 4.62,2.309 7.06,3.52 -2.44,-1.211 -4.8,-2.371 -7.06,-3.52" /><path
             id="path170"
             style="fill:#606264;fill-opacity:1;fill-rule:nonzero;stroke:none"
             d="m 1988.58,430.879 c -1.48,-0.77 -3.04,-1.57 -4.45,-2.289 -24.71,-12.988 -57.1,-19.352 -98.94,-19.352 -24.92,0 -49.34,2.09 -76.42,4.551 -54.07,4.941 -145.6,15.723 -146.54,15.871 l -6.99,0.75 -5.54,4.469 c -0.84,0.551 -80.98,64.473 -145.79,115.422 -2.63,2.14 -5.02,4.179 -7.18,5.898 -6.84,5.84 -6.84,5.84 -10.91,5.84 -20.8,0 -81.22,-18.758 -213.53,-59.758 l -8.13,-2.601 -8.03,3.05 c -0.9,0.239 -87.72,32.418 -191.76,32.418 -8.53,0 -17.03,-0.187 -25.3,-0.597 -10.41,-0.539 -68.882,-28.321 -143.726,-146.629 l -4.797,-7.641 -8.621,-2.75 c -1.242,-0.41 -129.992,-41.961 -266.543,-81 l -8.813,-2.5 -8.418,3.891 c -0.886,0.308 -54.207,25.09 -105.027,48.398 3.738,-1.742 7.512,-3.441 11.262,-5.179 C 554.551,297.84 650.625,214.559 661.301,203 c 1.48,-1.66 3.543,-3.691 5.984,-5.969 -2.48,2.789 -4.883,5.68 -7.234,8.59 l -0.09,0.098 0.012,-0.02 -0.012,0.02 c 22.141,-21 46.836,-39.117 73.828,-51.899 13.469,-6.32 27.59,-11.23 41.941,-13.609 7.239,-1.191 14.27,-1.781 21.606,-1.781 7.422,0 15.008,0.242 22.574,0.59 30.024,1.539 60.317,3.851 90.539,6.781 30.164,2.711 60.379,5.738 90.531,9.39 30.11,3.239 60.23,7.028 90.07,11.661 14.97,2.187 29.83,4.648 44.34,7.867 7.13,1.679 14.56,3.562 20.21,6.101 5.14,2.461 11.39,7.418 16.89,12.129 11.23,9.66 22.08,20.403 32.82,31.102 10.76,10.679 21.25,21.679 31.76,32.828 17.67,18.519 32.83,38.191 49.95,57.25 2.19,2.359 4.43,4.883 6.7,7.32 l 0.04,-0.039 0.2,-0.211 c 3.57,-2.578 7.12,-5.179 10.61,-7.91 20.6,-15.367 41.89,-31.988 62.39,-46.348 26.45,-18.589 53.24,-37.211 80.94,-52.711 6.92,-3.839 14.06,-7.46 20.89,-9.699 l 2.32,-0.59 2.53,-0.582 c 1.34,-0.199 3.16,-0.3 4.9,-0.41 3.73,-0.039 7.58,0.11 11.45,0.313 15.64,1.066 31.48,3.359 47.34,5.84 31.69,4.929 63.44,10.628 95.03,16.957 31.64,6.062 63.25,12.543 94.65,19.531 31.58,6.68 63,14.058 94.18,21.922 15.51,4.179 31.02,8.019 44.88,14.66 14.12,6.59 27.24,15.609 39.32,25.957 24.37,20.762 44.87,46.512 61.9,74.531 l -0.04,-0.09 c 10.45,19.391 17.3,36.719 21.33,48.309" /><path
             id="path172"
             style="fill:#606264;fill-opacity:1;fill-rule:nonzero;stroke:none"
             d="m 1397.82,1920.05 h 55.72 v 113.2 H 1046.1 v -113.2 h 55.72 v 57.49 h 115.22 v -349.59 h -47.43 v -64.88 h 160.4 v 64.88 h -47.44 v 349.59 h 115.25 v -57.49" /><path
             id="path174"
             style="fill:#4a4a4c;fill-opacity:1;fill-rule:nonzero;stroke:none"
             d="m 1650.35,1186.52 c -107.23,-47.47 -210.54,-72.17 -279.72,-84.62 69.18,12.42 172.48,37.13 279.72,84.62" /><path
             id="path176"
             style="fill:#4a4a4c;fill-opacity:1;fill-rule:nonzero;stroke:none"
             d="m 1373.75,1104.55 c -1.05,-0.88 -2.07,-1.77 -3.12,-2.65 1.05,0.88 2.07,1.77 3.12,2.65" /><path
             id="path178"
             style="fill:#4a4a4c;fill-opacity:1;fill-rule:nonzero;stroke:none"
             d="m 1748.53,1287.68 -0.01,-0.01 1.33,-0.08 -1.32,0.09" /><path
             id="path180"
             style="fill:#4a4a4c;fill-opacity:1;fill-rule:nonzero;stroke:none"
             d="m 1819.42,1282.66 c -3.86,-2.72 -7.67,-5.59 -11.6,-8.31 3.98,2.72 7.74,5.64 11.6,8.31" /><path
             id="path182"
             style="fill:#4a4a4c;fill-opacity:1;fill-rule:nonzero;stroke:none"
             d="m 1819.42,1282.66 -0.34,0.1 c -23.08,1.76 -46.15,3.33 -69.23,4.83 l -1.33,0.08 c -107.95,-94.61 -321.05,-166.09 -374.77,-183.12 -1.05,-0.88 -2.07,-1.77 -3.12,-2.65 69.18,12.45 172.49,37.15 279.72,84.62 52.73,23.35 106.41,52.19 157.47,87.83 3.93,2.72 7.74,5.59 11.6,8.31" /><path
             id="path184"
             style="fill:#4a4a4c;fill-opacity:1;fill-rule:nonzero;stroke:none"
             d="m 876.672,1142.48 c 39.305,20 85.926,42.1 138.268,64.03 -52.335,-21.92 -98.893,-43.97 -138.182,-63.97 l -0.086,-0.06" /><path
             id="path186"
             style="fill:#4a4a4c;fill-opacity:1;fill-rule:nonzero;stroke:none"
             d="m 1140.63,1254.14 c -3.47,-1.18 -6.92,-2.39 -10.38,-3.58 3.45,1.19 6.91,2.4 10.38,3.58" /><path
             id="path188"
             style="fill:#4a4a4c;fill-opacity:1;fill-rule:nonzero;stroke:none"
             d="m 1319.19,1304.25 c -25.43,-5.6 -50.32,-11.83 -74.74,-18.47 24.49,6.65 49.46,12.89 74.97,18.47 h -0.23" /><path
             id="path190"
             style="fill:#4a4a4c;fill-opacity:1;fill-rule:nonzero;stroke:none"
             d="m 1164.68,1262.11 c -2.88,-0.93 -5.7,-1.88 -8.56,-2.82 2.86,0.94 5.69,1.89 8.56,2.82" /><path
             id="path192"
             style="fill:#4a4a4c;fill-opacity:1;fill-rule:nonzero;stroke:none"
             d="m 1094.41,1237.77 c -4.07,-1.49 -8.1,-3 -12.11,-4.52 4.01,1.52 8.04,3.03 12.11,4.52" /><path
             id="path194"
             style="fill:#4a4a4c;fill-opacity:1;fill-rule:nonzero;stroke:none"
             d="m 1072.45,1229.53 c -4.36,-1.67 -8.71,-3.35 -13.01,-5.03 4.29,1.68 8.65,3.36 13.01,5.03" /><path
             id="path196"
             style="fill:#4a4a4c;fill-opacity:1;fill-rule:nonzero;stroke:none"
             d="m 1051.47,1221.37 c -4.77,-1.9 -9.54,-3.79 -14.23,-5.69 4.69,1.9 9.46,3.79 14.23,5.69" /><path
             id="path198"
             style="fill:#4a4a4c;fill-opacity:1;fill-rule:nonzero;stroke:none"
             d="m 1031.91,1213.51 c -5.44,-2.22 -10.86,-4.45 -16.18,-6.67 5.32,2.22 10.75,4.45 16.18,6.67" /><path
             id="path200"
             style="fill:#4a4a4c;fill-opacity:1;fill-rule:nonzero;stroke:none"
             d="m 1117.19,1246.01 c -3.8,-1.35 -7.54,-2.7 -11.31,-4.06 3.77,1.36 7.51,2.71 11.31,4.06" /><path
             id="path202"
             style="fill:#4a4a4c;fill-opacity:1;fill-rule:nonzero;stroke:none"
             d="m 1259.72,1304.84 c -203.25,-51.4 -333.95,-129.37 -382.962,-162.3 39.289,20 85.847,42.05 138.182,63.97 l 0.79,0.33 c 5.32,2.22 10.74,4.45 16.18,6.67 1.78,0.72 3.53,1.45 5.33,2.17 4.69,1.9 9.46,3.79 14.23,5.69 2.66,1.04 5.3,2.08 7.97,3.13 4.3,1.68 8.65,3.36 13.01,5.03 3.27,1.24 6.54,2.49 9.85,3.72 4.01,1.52 8.04,3.03 12.11,4.52 3.79,1.4 7.64,2.79 11.47,4.18 3.77,1.36 7.51,2.71 11.31,4.06 4.31,1.52 8.68,3.04 13.06,4.55 3.46,1.19 6.91,2.4 10.38,3.58 5.13,1.74 10.31,3.44 15.49,5.15 2.86,0.94 5.68,1.89 8.56,2.82 8.13,2.63 16.33,5.23 24.59,7.77 18.02,5.54 36.46,10.82 55.18,15.9 24.42,6.64 49.31,12.87 74.74,18.47 -19.81,0.34 -39.64,0.46 -59.47,0.59" /><path
             id="path204"
             style="fill:#4a4a4c;fill-opacity:1;fill-rule:nonzero;stroke:none"
             d="m 974.238,1299.66 c -33.496,-1.21 -67.011,-2.61 -100.547,-4.16 h -0.019 c 33.43,1.53 66.855,2.91 100.254,4.1 l 0.312,0.06" /><path
             id="path206"
             style="fill:#4a4a4c;fill-opacity:1;fill-rule:nonzero;stroke:none"
             d="M 873.672,1295.5 C 728.445,1264.86 458.27,1183.02 211.848,972.789 c -2.356,-2.73 -4.719,-5.461 -7.012,-8.219 125.269,87.08 340.594,216.54 606.797,295.29 8.582,2.53 17.234,5.01 25.926,7.46 44.171,12.39 89.738,23.22 136.367,32.28 -33.399,-1.19 -66.824,-2.57 -100.254,-4.1" /><path
             id="path208"
             style="fill:#4a4a4c;fill-opacity:1;fill-rule:nonzero;stroke:none"
             d="m 2000.84,437.051 0.62,0.308 -0.62,-0.308" /><path
             id="path210"
             style="fill:#4a4a4c;fill-opacity:1;fill-rule:nonzero;stroke:none"
             d="m 2034.67,439.25 c 2.2,4.16 4.29,8.211 6.38,12.172 l -0.01,-0.024 c -2.08,-3.918 -4.21,-8.019 -6.37,-12.148" /><path
             id="path212"
             style="fill:#4a4a4c;fill-opacity:1;fill-rule:nonzero;stroke:none"
             d="m 2007.43,440.289 1.25,0.609 -1.25,-0.609" /><path
             id="path214"
             style="fill:#4a4a4c;fill-opacity:1;fill-rule:nonzero;stroke:none"
             d="m 1303.85,309.422 17.36,-20.66 -17.25,20.578 -0.11,0.082" /><path
             id="path216"
             style="fill:#4a4a4c;fill-opacity:1;fill-rule:nonzero;stroke:none"
             d="m 2034.67,439.25 c -13.62,-25.969 -28.91,-55.398 -43.63,-84.031 14.73,28.633 30.01,58.019 43.63,84.031" /><path
             id="path218"
             style="fill:#4a4a4c;fill-opacity:1;fill-rule:nonzero;stroke:none"
             d="m 1820.1,204.98 c -7.95,-1.82 -15.43,-3.558 -22.21,-5.492 6.78,1.934 14.31,3.672 22.21,5.492" /><path
             id="path220"
             style="fill:#4a4a4c;fill-opacity:1;fill-rule:nonzero;stroke:none"
             d="m 1820.1,204.98 c 45.58,10.5 107.97,25.008 140.94,91.2 -33.01,-66.192 -95.36,-80.668 -140.94,-91.2" /><path
             id="path222"
             style="fill:#4a4a4c;fill-opacity:1;fill-rule:nonzero;stroke:none"
             d="m 1967.21,382.488 0.04,0.082 -0.06,-0.101 0.02,0.019" /><path
             id="path224"
             style="fill:#4a4a4c;fill-opacity:1;fill-rule:nonzero;stroke:none"
             d="m 1991.04,355.219 c -10.57,-20.598 -20.86,-40.797 -30,-59.039 9.14,18.218 19.43,38.441 30,59.039" /><path
             id="path226"
             style="fill:#4a4a4c;fill-opacity:1;fill-rule:nonzero;stroke:none"
             d="m 2028.92,450.52 c 1.68,0.8 3.39,1.609 5.11,2.41 -1.72,-0.801 -3.43,-1.61 -5.11,-2.41" /><path
             id="path228"
             style="fill:#4a4a4c;fill-opacity:1;fill-rule:nonzero;stroke:none"
             d="m 1323.19,286.41 c 8.8,-10.351 45.67,-53.14 89.45,-96.57 33.32,-33.012 73.48,-49.692 119.63,-49.692 -46.11,0 -86.31,16.68 -119.63,49.731 -43.78,43.41 -80.65,86.18 -89.45,96.531" /><path
             id="path230"
             style="fill:#4a4a4c;fill-opacity:1;fill-rule:nonzero;stroke:none"
             d="m 2014.33,443.609 2.13,1.039 -2.13,-1.039" /><path
             id="path232"
             style="fill:#4a4a4c;fill-opacity:1;fill-rule:nonzero;stroke:none"
             d="m 2036.54,454.102 c 2.6,1.207 5.22,2.418 7.81,3.589 -2.59,-1.171 -5.21,-2.382 -7.81,-3.589" /><path
             id="path234"
             style="fill:#4a4a4c;fill-opacity:1;fill-rule:nonzero;stroke:none"
             d="m 2021.5,447.051 c 1.12,0.519 2.21,1.051 3.31,1.578 -1.1,-0.527 -2.19,-1.059 -3.31,-1.578" /><path
             id="path236"
             style="fill:#4a4a4c;fill-opacity:1;fill-rule:nonzero;stroke:none"
             d="m 1581.29,146.211 c 15.51,3.75 32.3,7.828 49.53,11.93 51.12,12.211 107.74,25.757 145.35,35.531 -37.61,-9.774 -94.23,-23.301 -145.35,-35.492 -17.23,-4.141 -34.07,-8.16 -49.53,-11.969" /><path
             id="path238"
             style="fill:#4a4a4c;fill-opacity:1;fill-rule:nonzero;stroke:none"
             d="m 2036.54,454.102 -2.51,-1.172 c -1.72,-0.801 -3.43,-1.61 -5.11,-2.41 -1.38,-0.622 -2.73,-1.27 -4.11,-1.891 -1.1,-0.527 -2.19,-1.059 -3.31,-1.578 -1.68,-0.801 -3.37,-1.602 -5.04,-2.403 l -2.13,-1.039 c -1.92,-0.918 -3.8,-1.8 -5.65,-2.711 l -1.25,-0.609 c -2.02,-1 -4.03,-1.969 -5.97,-2.93 l -0.62,-0.308 c -4.33,-2.133 -8.43,-4.199 -12.26,-6.172 -4.02,-11.57 -10.88,-28.918 -21.33,-48.309 l -0.04,-0.082 0.08,0.114 -0.11,-0.153 c -17,-27.91 -37.47,-53.597 -61.79,-74.32 -12.08,-10.348 -25.2,-19.367 -39.32,-25.957 -13.86,-6.641 -29.37,-10.481 -44.88,-14.66 -31.18,-7.864 -62.6,-15.242 -94.18,-21.922 -31.4,-6.988 -63.01,-13.469 -94.65,-19.531 -31.59,-6.348 -63.34,-12.028 -95.03,-16.957 -15.86,-2.481 -31.7,-4.774 -47.34,-5.84 -3.87,-0.223 -7.72,-0.352 -11.45,-0.313 -1.74,0.09 -3.56,0.211 -4.9,0.41 l -2.53,0.582 -2.32,0.59 c -6.83,2.219 -13.97,5.86 -20.89,9.699 -27.7,15.5 -54.49,34.122 -80.94,52.711 -20.5,14.36 -41.79,30.981 -62.39,46.348 l -1.79,-2.539 0.12,-0.141 c 1.28,-1.148 2.57,-2.218 3.85,-3.359 l -0.09,0.059 c -0.94,0.703 -1.84,1.39 -2.7,2.031 l 17.25,-20.578 c 0.05,-0.063 0.71,-0.864 1.98,-2.352 8.8,-10.351 45.67,-53.121 89.45,-96.531 33.32,-33.051 73.52,-49.731 119.63,-49.731 15.75,0 32.3,2.071 49.02,6.063 15.46,3.789 32.3,7.809 49.53,11.969 51.12,12.172 107.74,25.718 145.35,35.492 2.49,0.656 4.93,1.289 7.27,1.906 5.32,1.41 10.14,2.703 14.45,3.891 6.78,1.929 14.26,3.691 22.21,5.492 45.58,10.551 107.93,25.027 140.94,91.219 9.14,18.242 19.43,38.441 30,59.039 14.72,28.633 30.01,58.062 43.63,84.031 2.16,4.129 4.29,8.23 6.37,12.148 l 0.01,0.024 c 1.12,2.109 2.23,4.238 3.3,6.269 -2.59,-1.171 -5.21,-2.382 -7.81,-3.589" /><path
             id="path240"
             style="fill:#4a4a4c;fill-opacity:1;fill-rule:nonzero;stroke:none"
             d="m 493.02,346.352 c 8.914,-13.161 18.691,-27.442 28.835,-42.012 -10.109,14.551 -19.843,28.808 -28.73,41.98 l -0.105,0.032" /><path
             id="path242"
             style="fill:#4a4a4c;fill-opacity:1;fill-rule:nonzero;stroke:none"
             d="m 1290.01,311.328 -0.03,-0.008 h 0.01 l 0.02,0.008" /><path
             id="path244"
             style="fill:#4a4a4c;fill-opacity:1;fill-rule:nonzero;stroke:none"
             d="m 1290.01,311.301 -0.02,0.019 -11.12,-29.89 11.14,29.871" /><path
             id="path246"
             style="fill:#4a4a4c;fill-opacity:1;fill-rule:nonzero;stroke:none"
             d="m 567.156,240.98 c -15.144,20.45 -30.613,42.211 -45.301,63.36 14.668,-21.149 30.137,-42.93 45.301,-63.36" /><path
             id="path248"
             style="fill:#4a4a4c;fill-opacity:1;fill-rule:nonzero;stroke:none"
             d="m 842.305,79.2695 c 16.496,0 34.023,0.961 52.043,3.0508 -18.008,-2.0312 -35.571,-3.0508 -52.063,-3.0508 h 0.02" /><path
             id="path250"
             style="fill:#4a4a4c;fill-opacity:1;fill-rule:nonzero;stroke:none"
             d="m 587.395,214.281 c -6.583,8.457 -13.391,17.481 -20.239,26.699 6.848,-9.242 13.625,-18.242 20.199,-26.699 54.52,-70.16 123.219,-135.0115 254.903,-135.0115 h 0.015 c -131.707,0 -200.347,64.8515 -254.878,135.0115" /><path
             id="path252"
             style="fill:#4a4a4c;fill-opacity:1;fill-rule:nonzero;stroke:none"
             d="m 1176.16,133.059 c 26.1,12.66 51.76,31.679 64.32,59.832 31.7,70.961 38.14,87.859 38.39,88.539 -0.25,-0.621 -6.69,-17.578 -38.39,-88.481 -12.56,-28.168 -38.22,-47.211 -64.32,-59.89" /><path
             id="path254"
             style="fill:#4a4a4c;fill-opacity:1;fill-rule:nonzero;stroke:none"
             d="m 1093.9,108.879 c 1.64,0.223 3.31,0.449 5.08,0.672 0.59,0.058 39.32,5.058 77.18,23.508 -37.86,-18.411 -76.58,-23.399 -77.22,-23.45 -1.76,-0.238 -3.42,-0.488 -5.04,-0.73" /><path
             id="path256"
             style="fill:#4a4a4c;fill-opacity:1;fill-rule:nonzero;stroke:none"
             d="m 917.969,85.0195 c 114.541,13.1797 145.961,18.7305 163.401,21.7505 4.52,0.82 8.37,1.492 12.53,2.109 -4.17,-0.598 -8.02,-1.289 -12.53,-2.07 -17.44,-3 -48.86,-8.6098 -163.401,-21.7895" /><path
             id="path258"
             style="fill:#4a4a4c;fill-opacity:1;fill-rule:nonzero;stroke:none"
             d="m 659.961,205.719 0.09,-0.098 -0.078,0.078 -0.012,0.02" /><path
             id="path260"
             style="fill:#4a4a4c;fill-opacity:1;fill-rule:nonzero;stroke:none"
             d="m 1289.98,311.32 -2.96,2.809 c -17.12,-19.059 -32.28,-38.731 -49.95,-57.25 -10.51,-11.149 -21,-22.149 -31.76,-32.828 -10.74,-10.699 -21.59,-21.461 -32.82,-31.102 -5.5,-4.711 -11.75,-9.668 -16.89,-12.129 -5.65,-2.539 -13.08,-4.422 -20.21,-6.101 -14.51,-3.219 -29.37,-5.68 -44.34,-7.867 -29.84,-4.633 -59.96,-8.442 -90.07,-11.661 -30.152,-3.652 -60.367,-6.679 -90.531,-9.39 -30.222,-2.93 -60.515,-5.242 -90.539,-6.781 -7.566,-0.348 -15.152,-0.59 -22.574,-0.59 -7.336,0 -14.367,0.59 -21.606,1.781 -14.351,2.379 -28.472,7.289 -41.941,13.609 -26.98,12.782 -51.68,30.899 -73.816,51.879 l 0.078,-0.078 c 2.984,-3.672 6.277,-7.133 9.422,-10.641 l -2.188,2.051 c -2.441,2.278 -4.504,4.309 -5.984,5.969 -10.676,11.559 -106.75,94.84 -156.914,138.141 -3.75,1.738 -7.524,3.437 -11.262,5.179 8.887,-13.172 18.621,-27.429 28.73,-41.98 14.688,-21.149 30.157,-42.91 45.301,-63.36 6.848,-9.242 13.656,-18.242 20.239,-26.699 54.531,-70.16 123.171,-135.0115 254.89,-135.0115 16.492,0 34.055,1.0196 52.063,3.0508 4.199,0.4688 8.281,0.9414 12.285,1.4102 3.855,0.4297 7.652,0.8593 11.336,1.289 114.541,13.1797 145.961,18.7895 163.401,21.7895 4.51,0.781 8.36,1.472 12.53,2.07 1.62,0.242 3.28,0.492 5.04,0.73 0.64,0.051 39.36,5.039 77.22,23.45 26.1,12.679 51.76,31.722 64.32,59.89 31.7,70.903 38.14,87.86 38.39,88.481 l 11.12,29.89 h -0.01" /><path
             id="path262"
             style="fill:#2c2b2a;fill-opacity:1;fill-rule:nonzero;stroke:none"
             d="m 1323.19,286.41 c 8.8,-10.351 45.67,-53.14 89.45,-96.57 33.32,-33.012 73.48,-49.692 119.63,-49.692 -46.11,0 -86.31,16.68 -119.63,49.731 -43.78,43.41 -80.65,86.18 -89.45,96.531" /><path
             id="path264"
             style="fill:#2c2b2a;fill-opacity:1;fill-rule:nonzero;stroke:none"
             d="m 567.156,240.98 c -15.144,20.45 -30.613,42.211 -45.301,63.36 14.668,-21.149 30.137,-42.93 45.301,-63.36" /><path
             id="path266"
             style="fill:#2c2b2a;fill-opacity:1;fill-rule:nonzero;stroke:none"
             d="m 1176.16,133.059 c 26.1,12.66 51.76,31.679 64.32,59.832 31.7,70.961 38.14,87.859 38.39,88.539 -0.25,-0.621 -6.69,-17.578 -38.39,-88.481 -12.56,-28.168 -38.22,-47.211 -64.32,-59.89" /><path
             id="path268"
             style="fill:#2c2b2a;fill-opacity:1;fill-rule:nonzero;stroke:none"
             d="m 1302.72,310.75 18.49,-21.988 -18.31,21.828 -0.18,0.16" /><path
             id="path270"
             style="fill:#2c2b2a;fill-opacity:1;fill-rule:nonzero;stroke:none"
             d="m 842.305,79.2695 c 16.496,0 34.023,0.961 52.043,3.0508 -18.008,-2.0312 -35.571,-3.0508 -52.063,-3.0508 h 0.02" /><path
             id="path272"
             style="fill:#2c2b2a;fill-opacity:1;fill-rule:nonzero;stroke:none"
             d="m 1581.29,146.211 c 15.51,3.75 32.3,7.828 49.53,11.93 54.53,13.031 115.33,27.597 152.62,37.437 -37.29,-9.84 -98.09,-24.406 -152.62,-37.398 -17.23,-4.141 -34.07,-8.16 -49.53,-11.969" /><path
             id="path274"
             style="fill:#2c2b2a;fill-opacity:1;fill-rule:nonzero;stroke:none"
             d="m 906.633,83.7305 c 123.827,14.1211 156.727,19.9415 174.737,23.0395 4.52,0.82 8.37,1.492 12.53,2.109 -4.17,-0.598 -8.02,-1.289 -12.53,-2.07 -18.01,-3.098 -50.91,-8.9574 -174.737,-23.0785" /><path
             id="path276"
             style="fill:#2c2b2a;fill-opacity:1;fill-rule:nonzero;stroke:none"
             d="m 2034.67,439.25 c -13.62,-25.969 -28.91,-55.398 -43.63,-84.031 14.73,28.633 30.01,58.019 43.63,84.031" /><path
             id="path278"
             style="fill:#2c2b2a;fill-opacity:1;fill-rule:nonzero;stroke:none"
             d="m 1290.01,311.328 -0.03,-0.008 h 0.01 l 0.02,0.008" /><path
             id="path280"
             style="fill:#2c2b2a;fill-opacity:1;fill-rule:nonzero;stroke:none"
             d="m 1600.27,955.211 c 14.02,0.301 25.15,11.828 24.91,25.848 -0.2,14.019 -11.78,25.221 -25.85,24.911 -14.01,-0.25 -25.16,-11.829 -24.87,-25.841 0.2,-13.969 11.8,-25.168 25.81,-24.918 z M 1756.34,840.91 c -33.51,16.199 -70.14,-4.289 -136.86,-5.539 -49.67,-1.781 -91.32,-2.332 -94.05,75.609 -2.76,78.098 29.02,142.64 78.7,144.37 49.63,1.74 94.95,-60.131 101.04,-137.971 1.69,-21.488 -0.7,-37.141 -6,-48.731 46.15,5.493 56.67,-25.839 57.17,-27.738" /><path
             id="path282"
             style="fill:#2c2b2a;fill-opacity:1;fill-rule:nonzero;stroke:none"
             d="m 888.953,936.391 c 13.969,0.347 25.024,12.039 24.668,26.007 -0.391,14.063 -12.098,25.102 -26.055,24.711 -14.07,-0.3 -25.105,-12.039 -24.754,-26.007 0.391,-14.063 12.071,-25.114 26.141,-24.711 z m 76.711,-40.852 c 0.742,-77.988 -40.559,-73.301 -90.273,-73.801 -5.047,-0.136 -9.805,-0.226 -14.571,-0.226 -5.539,-0.153 -10.886,-0.203 -16.023,-0.114 -48.254,0.114 -79.055,2.282 -106.34,-12.468 0.645,1.679 12.629,28.468 55.918,39.371 -4.773,10.527 -7.781,25.199 -8.574,45.5 -2.981,77.949 45.105,141.889 94.773,142.339 49.68,0.49 84.348,-62.601 85.09,-140.601" /><path
             id="path284"
             style="fill:#2c2b2a;fill-opacity:1;fill-rule:nonzero;stroke:none"
             d="m 2017.69,1377.02 c 1.14,-0.56 5.17,-2.53 9.92,-4.84 2.19,-1.07 4.14,-2.04 5.92,-2.89 -7.33,4.14 -14.82,7.94 -22.44,11.45 2.04,-1.31 4.12,-2.51 6.22,-3.54 l 0.38,-0.18" /><path
             id="path286"
             style="fill:#2c2b2a;fill-opacity:1;fill-rule:nonzero;stroke:none"
             d="m 473.098,1377.02 0.34,0.18 c 2.109,1.03 4.179,2.21 6.203,3.51 -7.356,-3.41 -14.582,-7.08 -21.633,-11.05 1.535,0.75 3.293,1.61 5.156,2.52 4.734,2.31 8.77,4.28 9.934,4.84" /><path
             id="path288"
             style="fill:#2c2b2a;fill-opacity:1;fill-rule:nonzero;stroke:none"
             d="m 1906.33,1431.85 c -0.53,-6.86 -1.04,-11.74 -1.35,-14.38 -19.6,5.34 -39.4,10.2 -59.32,14.86 -65.62,14.42 -132.02,25.11 -198.78,32.73 -2.29,0.3 -4.65,0.45 -6.99,0.74 0.44,0.99 0.85,2 1.15,2.98 2,7.27 3.74,14.58 5.39,21.88 17.2,76.13 16.3,151.95 14.36,188.64 l 237.36,-67.49 c 12.93,-84.35 10.43,-150.52 8.18,-179.96 z m -295.22,45.2 c -0.79,-2.72 -0.69,-5.55 0,-8.17 -24.85,2.62 -49.71,4.85 -74.57,6.88 27.87,58.45 33.97,120.7 35.32,142.63 21.43,15.2 42.73,33.48 58.38,47.69 1.42,-41.89 0.39,-117.9 -19.13,-189.03 z m -731.305,-8.02 c 0.675,2.52 0.722,5.3 0,8.02 -19.485,71.02 -20.52,147.04 -19.18,189.03 15.703,-14.21 36.953,-32.49 58.437,-47.69 1.297,-21.93 7.391,-84.03 35.262,-142.48 -24.859,-1.97 -49.715,-4.26 -74.519,-6.88 z m -35.86,-3.92 c -33.293,-4.06 -66.621,-8.26 -99.797,-13.77 -33.074,-5.64 -66.168,-11.68 -98.953,-18.96 -19.902,-4.61 -39.609,-9.52 -59.336,-14.86 -0.175,1.57 -0.421,3.96 -0.703,7.05 -2.297,24.47 -6.621,94.95 7.586,187.24 l 237.285,67.49 c -1.785,-35.32 -2.761,-106.87 12.493,-180.07 2.121,-10.15 4.531,-20.34 7.316,-30.45 0.301,-0.98 0.699,-1.99 1.141,-2.88 -2.383,-0.29 -4.668,-0.49 -7.032,-0.79 z m 1189.585,-95.83 c -2.01,0.97 -4.01,1.96 -5.92,2.9 -2.93,1.41 -6.19,3.03 -9.92,4.84 l -0.38,0.18 c -2.1,1.03 -4.18,2.23 -6.22,3.54 -21.97,10.15 -44.98,18.01 -67.96,25.54 -2.73,0.89 -5.4,1.69 -8.13,2.48 l 0.51,2.08 c 0.34,2.6 6.24,46.24 2.68,115.04 -1.52,29.39 -4.76,63.34 -10.91,100.68 -0.99,5.95 -5.35,10.79 -11.09,12.44 l -33.82,9.55 c -7.28,261.79 -115.06,384.8 -118.43,388.61 96.28,-154.96 95.44,-338.74 93.77,-381.58 l -209.75,59.63 -0.49,0.1 -2.68,0.4 -0.78,0.04 c -1.09,0.05 -2.28,-0.04 -3.42,-0.29 l -0.56,-0.15 c -0.93,-0.2 -1.78,-0.5 -2.72,-0.94 l -0.93,-0.45 -2.08,-1.38 -0.5,-0.34 -0.4,-0.41 -0.6,-0.49 c -0.19,-0.21 -5.84,-5.74 -14.61,-14.02 0.61,19.61 0.77,49.63 -1.47,86.29 -0.21,3.48 -0.44,7.01 -0.68,10.59 -6.6,92.1 -28.36,221.47 -93.42,334.72 0.56,-1.63 6.99,-20.42 15.31,-52.07 20.94,-79.63 53.9,-240.78 35.93,-415.65 l -0.23,-2.41 -0.85,-0.65 c -8.2,-6.51 -16.57,-12.87 -24.86,-18.46 -4.15,-2.88 -6.74,-7.57 -6.83,-12.63 0,-0.8 -1.84,-78.98 -36.35,-145.55 -0.61,-1.09 -0.93,-2.19 -1.28,-3.32 -85.88,5.89 -172,8.41 -258.03,8.47 -85.97,-0.06 -172.15,-2.43 -258.075,-8.27 -0.343,1.03 -0.695,2.12 -1.195,3.12 -34.558,66.57 -36.336,144.75 -36.387,145.55 -0.085,5.06 -2.625,9.75 -6.777,12.63 -8.57,5.79 -17.391,12.38 -25.816,19.11 -17.453,166.36 11.343,320.52 32.312,404.4 9.949,39.83 18.164,63.89 18.809,65.73 -94.406,-164.27 -97.664,-362.47 -95.574,-431.6 -8.926,8.28 -14.465,13.81 -14.614,14.02 l -0.652,0.49 -0.344,0.41 -0.547,0.34 -2.09,1.28 -0.984,0.55 -2.566,0.84 -0.598,0.25 c -1.191,0.25 -2.383,0.34 -3.477,0.29 l -0.886,-0.04 -2.571,-0.4 -0.5,-0.1 -209.675,-59.63 c -1.692,42.84 -2.586,226.62 93.691,381.58 -3.367,-3.81 -111.133,-126.82 -118.469,-388.61 L 574.773,1639 c -5.886,-1.65 -10.211,-6.49 -11.179,-12.44 -6.153,-37.29 -9.383,-71.2 -10.918,-100.56 -3.567,-68.88 2.351,-112.56 2.734,-115.16 l 0.457,-2.04 c -2.683,-0.83 -5.445,-1.63 -8.133,-2.47 -23.015,-7.54 -46.125,-15.44 -68.093,-25.62 -2.024,-1.3 -4.094,-2.48 -6.203,-3.51 l -0.34,-0.18 c -3.743,-1.81 -7.004,-3.43 -9.934,-4.84 -1.672,-0.82 -3.43,-1.68 -5.156,-2.52 -1.094,-0.62 -2.207,-1.19 -3.281,-1.82 15.554,6.1 31.652,10.56 47.734,14.52 16.152,4.02 32.402,7.58 48.633,10.65 32.644,6.08 65.383,11.34 98.308,15.35 32.844,4.31 65.825,7.87 98.852,10.64 33.047,2.83 66.023,5.6 99.148,7.53 132.434,7.83 265.198,10.3 398.028,10.35 132.86,-0.1 265.63,-2.18 398.03,-10.3 33.13,-1.93 66.11,-4.69 99.19,-7.48 33.09,-2.82 65.96,-6.43 98.8,-10.74 32.94,-3.96 65.73,-9.21 98.31,-15.31 16.29,-3.11 32.5,-6.58 48.58,-10.69 16.2,-3.96 32.2,-8.42 47.8,-14.52 l -2.61,1.44" /><path
             id="path290"
             style="fill:#2c2b2a;fill-opacity:1;fill-rule:nonzero;stroke:none"
             d="m 458.008,1369.66 v 0 c 1.726,0.84 3.484,1.7 5.156,2.52 -1.863,-0.91 -3.621,-1.77 -5.156,-2.52" /><path
             id="path292"
             style="fill:#2c2b2a;fill-opacity:1;fill-rule:nonzero;stroke:none"
             d="m 473.438,1377.2 -0.34,-0.18 0.34,0.18" /><path
             id="path294"
             style="fill:#2c2b2a;fill-opacity:1;fill-rule:nonzero;stroke:none"
             d="m 473.098,1377.02 c -1.164,-0.56 -5.2,-2.53 -9.934,-4.84 2.93,1.41 6.191,3.03 9.934,4.84" /><path
             id="path296"
             style="fill:#2c2b2a;fill-opacity:1;fill-rule:nonzero;stroke:none"
             d="m 2033.53,1369.28 v 0.01 c -1.78,0.85 -3.73,1.82 -5.92,2.89 1.91,-0.94 3.91,-1.93 5.92,-2.9" /><path
             id="path298"
             style="fill:#2c2b2a;fill-opacity:1;fill-rule:nonzero;stroke:none"
             d="m 2027.61,1372.18 c -4.75,2.31 -8.78,4.28 -9.92,4.84 3.73,-1.81 6.99,-3.43 9.92,-4.84" /><path
             id="path300"
             style="fill:#2c2b2a;fill-opacity:1;fill-rule:nonzero;stroke:none"
             d="m 2017.69,1377.02 -0.38,0.18 0.38,-0.18" /><path
             id="path302"
             style="fill:#2c2b2a;fill-opacity:1;fill-rule:nonzero;stroke:none"
             d="m 1282.57,1977.54 v -349.59 h 47.44 v -64.88 h -160.4 v 64.88 h 47.43 v 349.59 h -115.22 v -57.49 h -55.72 v 113.2 h 407.44 v -113.2 h -55.72 v 57.49 z m 212.92,-99.34 v 196.95 H 1004.26 V 1878.2 h 139.5 v 57.49 h 31.34 V 1669.9 h -47.34 v -148.63 h 244.15 v 148.63 h -47.49 v 265.79 h 31.46 v -57.49 h 139.61" /><path
             id="path304"
             style="fill:#2c2b2a;fill-opacity:1;fill-rule:nonzero;stroke:none"
             d="m 1302.9,310.59 v 0.019 l -0.18,0.141 0.18,-0.16" /><path
             id="path306"
             style="fill:#2c2b2a;fill-opacity:1;fill-rule:nonzero;stroke:none"
             d="m 1292.88,317.719 c 0,0 4.12,-3.098 10.97,-8.297 l -1.13,1.328 1.85,2.539 c -3.49,2.731 -7.04,5.332 -10.61,7.871 l -0.2,0.192 -0.04,0.097 c -2.27,-2.437 -4.51,-4.961 -6.7,-7.32 l 1.8,-1.699 c 2.58,3.398 4.06,5.289 4.06,5.289" /><path
             id="path308"
             style="fill:#2c2b2a;fill-opacity:1;fill-rule:nonzero;stroke:none"
             d="m 1302.9,310.609 -0.12,0.141 1.79,2.539 -1.85,-2.539 0.18,-0.141" /><path
             id="path310"
             style="fill:#2c2b2a;fill-opacity:1;fill-rule:nonzero;stroke:none"
             d="m 2261.46,1343.18 c -4.25,-31.19 -10,-62.1 -18.41,-92.02 -4.16,-14.95 -8.87,-29.75 -14.32,-43.97 -2.76,-7.23 -5.74,-14.26 -8.88,-21.05 -1.56,-3.41 -3.15,-6.78 -4.84,-10 l -1.88,-3.76 c -2.37,-1.19 -4.75,-2.42 -7.04,-3.47 l -13.96,-6.69 c -4.9,-2.28 -9.89,-4.41 -14.91,-6.63 l 24.71,93.8 c -5.73,1.53 -59.72,15.54 -152.52,32.73 2.91,0.59 5.8,1.28 8.61,1.93 19.27,4.77 38.23,10.65 56.65,18.08 9.12,3.92 18.24,8.07 26.77,12.97 8.49,4.91 16.97,10.45 23.45,17.88 -92.91,-30.4 -284.96,-16.64 -455.77,0.99 -156.03,16.14 -312.64,26.55 -469.99,26.94 -157.31,-0.39 -313.732,-10.8 -469.931,-26.94 -170.742,-17.63 -362.804,-31.39 -455.722,-0.99 6.543,-7.43 14.961,-12.97 23.535,-17.88 8.562,-4.9 17.566,-9.05 26.687,-12.97 18.391,-7.43 37.453,-13.31 56.66,-18.08 6.789,-1.64 13.711,-3.12 20.547,-4.36 -84.636,-16.13 -133.718,-28.82 -139.207,-30.3 l 25.852,-98.46 -1.446,-1.34 c -8.847,3.97 -19.562,9.07 -27.382,12.63 l -13.965,6.69 c -2.219,1.05 -4.653,2.28 -6.985,3.47 l -1.961,3.76 c -1.652,3.22 -3.234,6.59 -4.765,10 -3.117,6.79 -6.145,13.82 -8.813,21.05 -5.515,14.22 -10.164,29.02 -14.402,43.97 -8.43,29.92 -14.133,60.83 -18.445,92.02 -3.957,31.05 -6.086,62.45 -5.793,93.8 0.156,15.7 0.691,31.35 2.136,46.95 0.598,7.84 1.497,15.5 2.368,23.23 0.691,5.45 1.543,11.2 2.437,16.49 20.793,17.49 44.328,32.98 68.879,47.15 26.563,15.5 54.395,29.37 82.766,42.29 28.258,13.32 57.195,25.41 86.265,37.14 14.614,5.84 29.27,11.6 43.926,17.09 14.758,5.64 29.57,11.05 44.484,16.45 -31.21,-5.16 -62.121,-12.29 -92.761,-20.16 -19.856,-5.11 -39.731,-10.9 -59.387,-17.09 140.051,366.18 474.949,604.64 840.723,604.64 365.73,0 700.66,-238.46 840.76,-604.64 -19.65,6.19 -39.56,11.98 -59.47,17.09 -30.61,7.87 -61.5,15 -92.71,20.16 14.86,-5.4 29.72,-10.81 44.39,-16.45 14.75,-5.49 29.41,-11.25 43.97,-17.09 29.1,-11.73 58.09,-23.82 86.26,-37.14 28.42,-12.92 56.26,-26.79 82.84,-42.29 24.54,-14.17 48.12,-29.66 68.86,-47.15 0.91,-5.29 1.82,-11.04 2.47,-16.49 0.94,-7.73 1.79,-15.39 2.42,-23.23 1.35,-15.6 1.95,-31.25 2.1,-46.95 0.31,-31.35 -1.83,-62.75 -5.86,-93.8 z m -147.28,-256.29 c -70.41,15.51 -225.03,46.01 -435.51,66.52 68.74,29.32 138.77,66.06 202.76,112.07 125.24,-17.73 217.26,-36.69 267.18,-47.99 z m 54.43,-128.312 c 5.9,-4.797 10.54,-17.379 5.25,-75.816 -6.38,-71.602 -36.51,-197.25 -55.12,-217.453 -20.55,-4.02 -63.68,0.742 -89.93,6.832 4.45,18.019 5.79,26.738 9.4,45.148 l 46.02,32.211 c 3.65,2.57 6.08,6.531 6.74,10.891 l 32.13,225.129 c 19.51,-10.602 39.58,-21.942 45.51,-26.942 z m -296.1,-318.098 -489.04,55.622 -73.66,242.418 c -1.74,5.941 -6.73,10.308 -12.82,11.289 -18.12,2.941 -34.12,4.363 -47.44,4.363 -13.52,0 -29.42,-1.422 -47.64,-4.363 -6.06,-0.981 -11.01,-5.348 -12.85,-11.289 L 1117.31,701.969 630.938,593.789 438.145,728.801 400.156,1036.14 c 8.321,4.64 16.692,9.3 25.149,14.01 12,2.52 25.418,5.25 40.332,8.11 l 35.691,-289.998 c 0.586,-4.492 3.02,-8.614 6.797,-11.172 l 132.629,-92.871 c 2.664,-1.938 5.934,-2.93 9.141,-2.93 1.191,0 2.285,0.152 3.523,0.402 l 399.912,88.95 c 1.44,0.339 2.76,0.769 3.96,1.468 3.77,2 6.63,5.422 7.88,9.52 l 72.11,237.109 c 19.2,4.952 68.74,16.602 112.27,16.602 43.33,0 92.86,-11.65 112.12,-16.602 l 72.06,-237.109 c 1.83,-6.09 7.17,-10.551 13.56,-11.238 l 399.97,-45.473 c 3.8,-0.449 7.81,0.594 10.88,2.832 l 132.72,92.75 c 3.58,2.578 6,6.602 6.64,10.949 l 35.36,247.761 c 26.65,-5.04 48.88,-9.76 66.33,-13.52 L 2060,771.891 Z m 112.23,11.86 c -4.54,-14.512 -9.3,-28.59 -14.14,-42.43 -19.31,-55.09 -41.04,-105.07 -64.66,-150.23 -6.5,-0.391 -13.43,-0.7 -20.75,-0.7 -22.84,0 -46.16,1.989 -71.92,4.34 -44.76,4.078 -115.78,12.2 -138.17,14.782 -19.36,15.449 -85.48,67.949 -140.44,111.289 -2.14,1.668 -3.97,3.308 -5.85,4.808 -9.67,8.219 -20.66,17.512 -42.99,17.512 -20.24,0 -49.82,-7.383 -121.34,-29 37.14,27.769 37.44,63.66 37.44,63.66 0,0 -52.97,-49.223 -138.37,-60.211 -85.33,-10.941 -152.32,41.449 -152.32,41.449 2.81,-9.121 6.79,-29.718 26.14,-47.23 -22.78,2.652 -47.33,4.539 -73,4.539 -9.35,0 -18.76,-0.289 -27.83,-0.738 C 984.055,581.461 910.145,502.09 858.262,422.09 832.793,414.039 753.066,388.699 660.957,361.57 606.543,436.91 569.641,513.262 548.762,562.449 536.594,591.09 529.863,610.57 528.32,615.191 v 0.098 c -1.679,4.789 -3.515,9.691 -5.058,14.66 l 22.09,-15.41 v -0.141 l 54.675,-38.296 18.235,-12.723 c 2.761,-1.93 6.035,-2.91 9.265,-2.91 1.125,0 2.317,0.152 3.508,0.351 l 468.125,104.27 34.3,7.648 c 5.65,1.242 10.15,5.442 11.84,10.942 l 71.65,235.871 c 12.35,1.629 23.24,2.48 32.6,2.48 9.14,0 20.16,-0.851 32.48,-2.48 l 73.75,-242.852 c 1.87,-6.25 7.23,-10.648 13.57,-11.39 l 27.35,-3.09 6.96,-0.778 471.33,-53.582 c 3.86,-0.449 7.81,0.602 10.98,2.832 l 47.39,33.168 43.74,30.653 16.25,11.386 c -2.68,-11.289 -5.6,-22.488 -8.61,-33.558 z m -0.61,-223.75 c 1.43,0.719 2.96,1.519 4.45,2.289 15.64,8.043 36.08,17.812 55.77,26.812 -1.07,-2.031 -2.18,-4.16 -3.3,-6.269 -2.09,-3.961 -4.18,-8.012 -6.38,-12.172 -13.62,-26.012 -28.9,-55.398 -43.63,-84.031 -10.57,-20.598 -20.86,-40.821 -30,-59.039 -32.97,-66.192 -95.36,-80.7 -140.94,-91.2 -7.9,-1.82 -15.43,-3.558 -22.21,-5.492 -4.31,-1.207 -9.13,-2.5 -14.45,-3.91 -37.29,-9.84 -98.09,-24.406 -152.62,-37.437 -17.23,-4.102 -34.02,-8.18 -49.53,-11.93 -16.72,-3.992 -33.27,-6.063 -49.02,-6.063 -46.15,0 -86.31,16.68 -119.63,49.692 -43.78,43.43 -80.65,86.219 -89.45,96.57 -1.27,1.488 -1.93,2.289 -1.98,2.352 l -17.36,20.66 c -6.85,5.199 -10.97,8.297 -10.97,8.297 0,0 -1.48,-1.891 -4.06,-5.289 l -1.8,1.699 2.96,-2.809 0.03,0.008 -0.02,-0.008 0.02,-0.019 -11.14,-29.871 c -0.25,-0.68 -6.69,-17.578 -38.39,-88.539 -12.56,-28.153 -38.22,-47.172 -64.32,-59.832 -37.86,-18.45 -76.59,-23.45 -77.18,-23.508 -1.77,-0.223 -3.44,-0.449 -5.08,-0.672 -4.16,-0.617 -8.01,-1.289 -12.53,-2.109 -18.01,-3.098 -50.91,-8.9184 -174.737,-23.0395 -4.004,-0.4688 -8.086,-0.9414 -12.285,-1.4102 -18.02,-2.0898 -35.547,-3.0508 -52.043,-3.0508 h -0.047 c -131.684,0 -200.383,64.8515 -254.903,135.0115 -6.574,8.457 -13.351,17.481 -20.199,26.699 -15.164,20.43 -30.633,42.211 -45.301,63.36 -10.144,14.57 -19.921,28.851 -28.835,42.012 l 0.105,-0.032 c 3.738,-1.742 7.512,-3.441 11.262,-5.179 47.136,-21.661 92.949,-42.95 93.765,-43.219 l 8.418,-3.891 8.813,2.5 c 136.551,39.039 265.301,80.59 266.543,81 l 8.621,2.75 4.797,7.641 c 74.844,118.308 133.316,146.09 143.726,146.629 8.27,0.41 16.77,0.597 25.3,0.597 104.04,0 190.86,-32.179 191.76,-32.418 l 8.03,-3.05 8.13,2.601 c 132.31,41 192.73,59.758 213.53,59.758 4.07,0 4.07,0 10.91,-5.84 2.16,-1.719 4.55,-3.758 7.18,-5.898 64.81,-50.949 144.95,-114.871 145.79,-115.422 l 5.54,-4.469 6.99,-0.75 c 0.94,-0.148 92.47,-10.93 146.54,-15.871 27.08,-2.461 51.5,-4.551 76.42,-4.551 41.84,0 74.23,6.364 98.94,19.352 z M 1281.73,37.5898 c -63.34,-4.25 -127.63,3.2305 -190.57,20.4493 5.31,1 9.11,1.6406 13.76,2.1914 5.22,0.6484 118.13,15.3906 168.93,91.0195 l 4.82,-0.102 12.52,0.102 c 8.43,0 16.1,0.699 24.16,1.051 19.23,1.621 37.99,4.398 56.46,8.109 1.99,-1.98 3.87,-3.93 5.86,-5.941 38.22,-37.828 85.56,-59.5276 137.67,-63.3401 -87.58,-35.5078 -170.07,-49.2773 -233.61,-53.5391 z m 69.18,144.1602 c -12.37,-1.77 -24.65,-3.352 -36.83,-4.309 -7.93,-0.39 -16.25,-1.25 -23.83,-1.25 h -2.83 c 9.51,21.207 16.75,37.68 22.19,50.161 11.21,-12.481 25.32,-27.922 41.3,-44.602 z M 382.812,630.141 c -7.39,7.48 -17.265,32.078 -27.042,63.39 -15.204,48.77 -30.086,113.86 -34.813,156.207 -6.23,56.352 -1.836,68.481 3.926,73.231 6.633,5.551 31.535,19.761 53.086,31.261 L 407.09,717.738 c 0.598,-4.547 2.976,-8.566 6.726,-11.226 l 59.719,-41.801 c 0.969,-3.402 2.024,-6.762 3.02,-10.16 1.375,-4.711 2.715,-9.442 4.16,-14.11 -24.699,-7.293 -75.117,-14.273 -97.903,-10.3 z m 806.458,639.739 c -125.34,-38.57 -233.633,-87.25 -312.598,-127.4 -8.527,-4.32 -16.809,-8.58 -24.621,-12.69 89.609,85.68 184.789,133.71 195.739,139.01 l 0.97,0.6 72.56,34.36 c 39.31,0.74 78.6,1.19 117.81,1.29 h 0.06 c 6.84,-0.03 13.68,-0.16 20.53,-0.21 19.9,-0.13 39.8,-0.25 59.7,-0.59 -44.97,-9.84 -88.56,-21.59 -130.15,-34.37 z m 284.57,2.08 c -22.34,-28.27 -53.4,-64.42 -90.13,-99.78 -42.79,1.24 -86.72,2.03 -131.94,2.03 -74.74,0 -146.35,-1.98 -214.45,-5.25 96.14,39.91 211.67,78.79 336.77,102.22 36.51,6.93 73.89,12.48 111.83,16.29 -3.65,-4.81 -7.73,-10.06 -12.08,-15.51 z M 1370.63,1101.9 c 1.05,0.88 2.07,1.77 3.12,2.65 71.39,59.85 127.09,129.49 155.36,167.71 8.92,12.24 15.15,21.25 18.21,25.81 52.71,-2.23 105.39,-4.76 158.1,-7.73 14.39,-0.81 28.75,-1.73 43.11,-2.66 23.5,-1.52 47.02,-3.13 70.55,-4.92 l 0.34,-0.1 c -3.86,-2.67 -7.62,-5.59 -11.6,-8.31 -154.91,-108.11 -333.98,-153.92 -437.19,-172.45 z m -82.61,-55.21 c 7.97,0.54 140.14,16.73 298.04,71.15 174.87,-13.41 317.64,-34.86 415.22,-52.68 l -34.57,-242.269 -121.93,-85.379 -383.32,43.566 -71.57,235.542 c -1.63,5.25 -5.69,9.27 -10.95,10.79 -2.36,0.75 -49.82,14.27 -100.12,18.63 z m -724.829,73.05 c 106.465,48.97 228,93.99 360.032,124.69 -34.219,-24.12 -72.989,-54.87 -110.633,-92.21 -96.223,-9.62 -180.117,-21.29 -249.399,-32.48 z m 204.817,-15.96 c -11.824,-14.06 -23.313,-28.91 -34.168,-44.62 l -65.656,-94.242 95.625,63.782 c 1.433,1 62.351,41.06 161.894,89.74 99.297,7.48 208.837,12.34 326.067,12.34 28.61,0 56.55,-0.4 84.19,-0.85 -19.27,-15.6 -39.57,-30.2 -60.72,-42.99 l -70.42,-42.59 c -44.28,-5.34 -82.7,-16.34 -84.89,-16.94 -1.35,-0.29 -2.51,-0.83 -3.65,-1.57 -3.43,-1.99 -6.05,-5.3 -7.24,-9.22 l -71.91,-236.671 -383.81,-85.32 -120.937,84.672 -35.117,284.919 c 68.593,12.62 160.507,27.24 270.742,39.56 z m -412.981,113.71 c 20.356,4.61 47.856,10.5 81.575,16.98 -20.696,-14.11 -45.215,-31.79 -72,-53.13 z M 204.836,964.57 c 2.293,2.758 4.656,5.489 7.012,8.219 132.832,155.071 320.82,273.111 370.457,302.841 5.488,0.69 10.886,1.3 16.394,1.84 19.211,2.08 38.528,3.67 57.883,5.09 38.789,2.98 77.512,5.66 116.445,7.78 33.535,1.89 67.09,3.61 100.664,5.16 33.536,1.55 67.051,2.95 100.547,4.16 -46.75,-9.07 -92.414,-19.92 -136.679,-32.34 C 559.414,1189.51 334.133,1054.45 204.836,964.57 Z m 2107.744,473.8 c -0.8,16.84 -2.47,33.67 -4.86,50.32 -1.08,8.42 -2.38,16.84 -4.12,25.1 -1.62,8.53 -3.3,16.46 -5.98,25.71 l -1.77,6.54 -4.67,3.66 c -26.54,20.85 -55.17,36.6 -84.24,50.52 -24.01,11.34 -48.39,21.2 -73.04,30.3 -68.75,190.78 -186.92,359.94 -342.28,477.81 -160.6,121.83 -349.48,186.32 -546.19,186.32 -196.72,0 -385.594,-64.49 -546.2,-186.32 -155.363,-117.87 -273.539,-287.03 -342.265,-477.85 -24.602,-9.06 -49.027,-18.96 -72.988,-30.26 -29.122,-13.92 -57.747,-29.67 -84.289,-50.52 l -4.668,-3.66 -1.79,-6.54 c -2.566,-9.25 -4.246,-17.18 -5.984,-25.71 -1.672,-8.26 -2.922,-16.68 -4.109,-25.1 -2.383,-16.65 -3.965,-33.48 -4.848,-50.32 -1.687,-33.72 -0.738,-67.5 2.961,-101.03 3.574,-33.48 9.812,-66.66 18.711,-99.55 4.668,-16.33 9.973,-32.48 16.262,-48.53 3.125,-8.02 6.531,-15.99 10.308,-23.96 1.86,-3.97 3.899,-7.84 5.981,-11.89 l 3.316,-5.89 c 1.289,-2.18 2.133,-3.77 4.074,-6.64 l 3.352,-5.3 5.367,-2.72 c 5.688,-2.93 10.395,-5.15 15.527,-7.59 l 15.012,-6.73 c 2.781,-1.14 5.391,-2.27 8.235,-3.42 C 219.199,1052.08 145.145,970.172 81.0078,868.941 L 0,741.18 113.711,840.961 c 1.934,1.687 97.266,84.238 256.277,177.749 l 2.231,-18.28 c -10.403,-5.41 -60.403,-31.649 -75.266,-44.078 -24.629,-20.461 -25.82,-52.204 -19.226,-111.422 3.378,-30.36 14.753,-89.289 30.105,-143.309 26.445,-92.973 45.828,-109.43 62.852,-113.269 7.675,-1.84 17.586,-2.692 28.73,-2.692 30.457,0 69.473,5.942 94.934,13.621 29.863,-92.859 72.156,-176.691 123.718,-250.25 -2.492,-0.679 -4.953,-1.48 -7.441,-2.191 -31.008,14.379 -139.453,64.621 -175.906,81.012 l -76.164,34.277 45.05,-70.348 c 3.282,-5.07 81.036,-126.32 144.532,-208.051 59.375,-76.21 140.691,-154.2183 294.121,-154.2183 18.465,0 37.793,1.1875 57.691,3.3789 45.754,5.25 80.129,9.3711 106.271,12.7305 161.07,-59.1797 338.65,-62.8125 507.19,1.0391 46.12,17.5195 88.15,38.7695 126.73,62.5898 l 2.28,0.488 c 62.7,15.121 133.77,32.051 168.88,41.922 5.64,1.52 12.67,3.199 20.01,4.942 48.92,11.25 130.68,30.207 174.28,117.429 43.92,87.989 115.56,222.797 116.31,224.188 l 33.5,62.89 -65.28,-28.379 c -3.48,-1.582 -86.18,-37.601 -129.16,-60.121 -1.54,-0.859 -3.26,-1.597 -5.01,-2.418 34.87,71.149 52.46,128.047 58.59,149.887 24.06,-5.789 59.72,-5.039 85.96,-5.039 12.9,0 26.17,2.231 34.77,4.449 17.05,4.321 30.23,15.653 54.99,111.582 14.42,55.758 24.75,116.489 27.58,147.692 5.49,60.75 3.71,93.289 -21.09,113.84 -12.35,10.198 -48.59,29.718 -67.02,39.328 l 0.9,6.64 c 9.41,-2.24 14.46,-3.52 14.86,-3.63 l 16.74,63.45 c 5.89,2.52 12.13,5.05 19.21,7.78 10.09,4.01 20.21,8.01 30.32,12.37 l 14.93,6.73 c 5.21,2.44 9.87,4.66 15.57,7.59 l 5.33,2.72 3.38,5.3 c 1.89,2.87 2.89,4.46 4.06,6.64 l 3.27,5.89 c 2.24,4.05 4.2,7.92 6.04,11.89 3.78,7.97 7.13,15.94 10.31,23.96 6.28,16.05 11.58,32.2 16.24,48.53 8.87,32.89 15.2,66.07 18.73,99.55 3.8,33.53 4.64,67.31 2.96,101.03" /></g></g></g></g></svg>
