<?xml version="1.0" encoding="utf-8"?>
<!-- Generated by IcoMoon.io -->
<!DOCTYPE svg PUBLIC "-//W3C//DTD SVG 1.1//EN" "http://www.w3.org/Graphics/SVG/1.1/DTD/svg11.dtd">
<svg version="1.1" xmlns="http://www.w3.org/2000/svg" xmlns:xlink="http://www.w3.org/1999/xlink" width="48" height="48" viewBox="0 0 48 48">
<g id="icomoon-ignore">
	<line stroke-width="1" x1="" y1="" x2="" y2="" stroke="#449FDB" opacity=""></line>
</g>
	<path d="M12.35 35.595c0 1.268 1.073 1.902 3.219 1.902 1.878 0 2.817-0.658 2.817-1.975 0-1.244-1.024-1.865-3.072-1.865-1.976-0-2.963 0.646-2.963 1.938zM40.001 0h-32c-4.4 0-8.001 3.6-8.001 8.001v31.998c0 4.403 3.601 8.001 8.001 8.001h32c4.4 0 7.999-3.598 7.999-8.001v-31.998c0-4.401-3.599-8.001-7.999-8.001zM22.3 19.171c-0.341 0.122-0.829 0.256-1.463 0.402 0.195 0.561 0.293 1.085 0.293 1.573 0 1.561-0.47 2.92-1.408 4.079s-2.152 1.847-3.64 2.067c-0.975 0.147-1.463 0.671-1.463 1.573 0 0.317 0.158 0.634 0.476 0.951 0.415 0.463 1.024 0.756 1.829 0.878 3.487 0.536 5.231 1.987 5.231 4.353 0 3.78-2.256 5.67-6.767 5.67-1.854 0-3.378-0.329-4.572-0.988-1.512-0.829-2.268-2.134-2.268-3.914 0-2.049 1.134-3.451 3.401-4.206v-0.073c-0.829-0.512-1.243-1.292-1.243-2.341 0-1.366 0.39-2.219 1.17-2.56v-0.073c-0.78-0.268-1.475-0.878-2.085-1.829-0.683-1.024-1.024-2.122-1.024-3.292 0-1.756 0.622-3.219 1.865-4.389 1.195-1.098 2.622-1.646 4.28-1.646 1.195 0 2.304 0.292 3.329 0.878 1.17 0 2.524-0.293 4.061-0.878l-0.001 3.767zM28.227 31.828h-4.134c0.049-0.488 0.073-1.316 0.073-2.487v-11.376c0-1.146-0.024-1.939-0.073-2.377h4.134c-0.049 0.463-0.073 1.231-0.073 2.305v11.23c0 1.244 0.024 2.146 0.073 2.707zM27.952 11.929c-0.5 0.536-1.091 0.804-1.774 0.804-0.707 0-1.311-0.268-1.811-0.804s-0.75-1.171-0.75-1.902c0-0.756 0.25-1.402 0.75-1.939s1.103-0.805 1.811-0.805c0.683 0 1.274 0.268 1.774 0.805s0.75 1.183 0.75 1.939c0 0.732-0.25 1.365-0.75 1.902zM39.454 31.352c-0.903 0.488-1.988 0.732-3.256 0.732-1.78 0-3.012-0.634-3.694-1.902-0.512-0.951-0.768-2.451-0.768-4.499v-6.548h0.036v-0.073l-0.549-0.037c-0.317 0-0.732 0.037-1.244 0.11v-3.548h1.792v-1.427c0-0.683-0.036-1.232-0.11-1.646h4.243c-0.073 0.463-0.11 0.987-0.11 1.573v1.5h3.182v3.548c-0.122 0-0.347-0.012-0.677-0.036s-0.64-0.037-0.933-0.037h-1.573v6.804c0 1.634 0.537 2.451 1.609 2.451 0.756 0 1.439-0.207 2.049-0.622v3.658zM15.057 18.769c-1.536 0-2.305 0.903-2.305 2.707 0 1.683 0.768 2.524 2.305 2.524 1.488 0 2.231-0.853 2.231-2.561 0-0.707-0.171-1.317-0.512-1.829-0.415-0.561-0.988-0.841-1.719-0.841z" fill="#000000"></path>
</svg>
